<svg width="47" height="45" viewBox="0 0 47 45" fill="none" xmlns="http://www.w3.org/2000/svg">
<g clip-path="url(#clip0_911_46268)">
<rect x="0.601013" y="0.462402" width="45.7959" height="44" rx="22" transform="rotate(0.195967 0.601013 0.462402)" fill="white"/>
<path d="M38.3405 41.5868L38.4409 41.5654L38.4313 41.4632L36.8019 24.0416L36.7897 23.9108L36.6616 23.9398L33.9485 24.5535L33.9483 24.5535L33.7868 24.5898L33.7867 24.5899L31.7177 25.0581L31.6069 25.0832L31.6302 25.1943L34.7793 40.18L34.7823 40.1943L34.7888 40.2074L35.0498 40.7363L35.05 40.7366L35.6983 42.0607L35.7379 42.1415L35.826 42.1228L38.3405 41.5868Z" fill="white" stroke="black" stroke-width="0.230737"/>
<path d="M36.5305 41.4863L35.1535 40.6856L34.8922 40.1563L31.7431 25.1706L33.3203 24.8137L33.8111 27.7066L36.5305 41.4863Z" fill="#D9DCED"/>
<path d="M6.77096 30.3438C6.87619 29.9773 7.17043 29.3318 7.54607 28.5789C7.92377 27.8218 8.38883 26.9463 8.84073 26.116C9.29272 25.2855 9.73195 24.4994 10.0581 23.921C10.2213 23.6318 10.3561 23.3945 10.4502 23.2294L10.5593 23.0386L10.5879 22.9886L10.5953 22.9758L10.5971 22.9726L10.5976 22.9718L10.5977 22.9716L10.6978 23.029L10.5978 22.9715L10.6491 22.8822L10.7437 22.9232L15.3885 24.9372L15.5164 24.9927L15.4379 25.108L11.5118 30.8723L11.4773 30.9229L11.475 30.9229L10.8033 31.9076M6.77096 30.3438C6.77105 30.3436 6.77114 30.3433 6.77122 30.343L6.88161 30.3765L6.77071 30.3447C6.77079 30.3444 6.77088 30.3441 6.77096 30.3438ZM6.77096 30.3438C6.76635 30.3591 6.76162 30.3773 6.75755 30.3929C6.75538 30.4013 6.75339 30.4089 6.75172 30.4149L6.75168 30.4151C6.2259 32.3258 6.91009 33.6782 7.72457 34.547C8.13032 34.9798 8.56804 35.2927 8.90378 35.4973C9.07184 35.5998 9.21485 35.6754 9.31626 35.7256C9.36699 35.7507 9.40735 35.7694 9.43528 35.782C9.44925 35.7883 9.46012 35.7931 9.46763 35.7963L9.47634 35.8L9.47874 35.801L9.47945 35.8013L9.47968 35.8014C9.47975 35.8015 9.47982 35.8015 9.52383 35.6948M9.52383 35.6948L9.47982 35.8015L9.5724 35.8397L9.62324 35.7534L10.41 34.4178L10.3106 34.3592M9.52383 35.6948L10.3106 34.3592M9.52383 35.6948C9.52383 35.6948 5.83723 34.1732 6.86292 30.4457L10.6651 31.9054M10.3106 34.3592L10.41 34.4178L11.3314 32.8543L11.3673 32.7933L11.3293 32.7337L10.8033 31.9076M10.3106 34.3592L11.232 32.7957L10.6651 31.9054M10.8033 31.9076L10.7624 31.8434L10.6651 31.9054M10.8033 31.9076L10.7604 31.9704L10.6651 31.9054" fill="white" stroke="black" stroke-width="0.230737"/>
<path d="M10.3106 34.3592L9.52385 35.6948C9.52385 35.6948 5.83725 34.1732 6.86294 30.4457C7.01311 31.7383 7.748 33.4275 10.3129 34.3593L10.3106 34.3592Z" fill="#EAEAFF"/>
<mask id="path-6-outside-1_911_46268" maskUnits="userSpaceOnUse" x="18.035" y="0.281498" width="13.041" height="12.0444" fill="black">
<rect fill="white" x="18.035" y="0.281498" width="13.041" height="12.0444"/>
<path d="M20.8911 11.6953C20.8911 11.6953 19.3818 11.787 19.0983 7.63736C18.7752 2.9292 20.3623 3.72375 20.3623 3.72375C20.3623 3.72375 20.2593 1.44601 23.1878 1.32451C26.1163 1.2007 30.3419 1.65124 30.3419 1.65124C30.3419 1.65124 30.335 3.65864 29.7064 4.63944C30.0303 5.71809 30.0756 10.6953 27.811 11.6843"/>
</mask>
<path d="M20.8911 11.6953C20.8911 11.6953 19.3818 11.787 19.0983 7.63736C18.7752 2.9292 20.3623 3.72375 20.3623 3.72375C20.3623 3.72375 20.2593 1.44601 23.1878 1.32451C26.1163 1.2007 30.3419 1.65124 30.3419 1.65124C30.3419 1.65124 30.335 3.65864 29.7064 4.63944C30.0303 5.71809 30.0756 10.6953 27.811 11.6843" fill="#393761"/>
<path d="M19.0983 7.63736L19.3285 7.62164L19.3285 7.62157L19.0983 7.63736ZM20.3623 3.72375L20.259 3.93008L20.6106 4.10608L20.5928 3.71333L20.3623 3.72375ZM23.1878 1.32451L23.1974 1.55505L23.1976 1.55504L23.1878 1.32451ZM30.3419 1.65124L30.5726 1.65203L30.5733 1.44388L30.3664 1.42181L30.3419 1.65124ZM29.7064 4.63944L29.5121 4.51493L29.4549 4.60422L29.4854 4.70581L29.7064 4.63944ZM20.8911 11.6953C20.8771 11.4649 20.8774 11.4649 20.8777 11.4649C20.8778 11.4649 20.8781 11.4649 20.8783 11.4649C20.8787 11.4649 20.879 11.4648 20.8793 11.4648C20.88 11.4648 20.8806 11.4648 20.881 11.4647C20.882 11.4647 20.8827 11.4647 20.883 11.4647C20.8836 11.4647 20.883 11.4647 20.8812 11.4646C20.8775 11.4645 20.869 11.4641 20.8563 11.4624C20.831 11.459 20.7886 11.4506 20.7338 11.4295C20.6258 11.3878 20.4604 11.2934 20.2783 11.0748C19.9104 10.6329 19.4688 9.67527 19.3285 7.62164L18.8681 7.65309C19.0113 9.7491 19.466 10.8204 19.9237 11.3701C20.1544 11.6472 20.3841 11.7892 20.5679 11.8601C20.659 11.8952 20.7368 11.912 20.7951 11.9198C20.8242 11.9237 20.8485 11.9253 20.867 11.9259C20.8763 11.9262 20.8842 11.9262 20.8906 11.9261C20.8937 11.9261 20.8966 11.926 20.899 11.9259C20.9002 11.9258 20.9013 11.9258 20.9023 11.9257C20.9029 11.9257 20.9033 11.9257 20.9038 11.9256C20.904 11.9256 20.9044 11.9256 20.9045 11.9256C20.9048 11.9256 20.9051 11.9256 20.8911 11.6953ZM19.3285 7.62157C19.2485 6.45512 19.2878 5.64224 19.3868 5.07958C19.4861 4.5148 19.6423 4.22077 19.7795 4.07067C19.9094 3.92851 20.033 3.90335 20.1179 3.9039C20.1639 3.9042 20.203 3.91236 20.2299 3.92023C20.2431 3.92412 20.2528 3.92775 20.258 3.92988C20.2606 3.93094 20.2621 3.9316 20.2623 3.93169C20.2624 3.93174 20.2622 3.93164 20.2617 3.93138C20.2614 3.93125 20.261 3.93108 20.2606 3.93086C20.2604 3.93075 20.2601 3.93063 20.2599 3.9305C20.2597 3.93044 20.2595 3.93033 20.2594 3.9303C20.2592 3.93019 20.259 3.93008 20.3623 3.72375C20.4656 3.51743 20.4654 3.51731 20.4651 3.51719C20.465 3.51714 20.4648 3.51702 20.4646 3.51693C20.4642 3.51675 20.4638 3.51656 20.4634 3.51636C20.4626 3.51595 20.4617 3.5155 20.4606 3.51501C20.4586 3.51402 20.4561 3.51285 20.4532 3.51154C20.4474 3.50892 20.44 3.50569 20.4311 3.50208C20.4133 3.49487 20.3891 3.48603 20.3596 3.47738C20.301 3.4602 20.2186 3.44306 20.1208 3.44244C19.9183 3.44113 19.6653 3.51159 19.4388 3.75932C19.2197 3.99911 19.0396 4.38922 18.9323 4.99963C18.8245 5.61217 18.7866 6.46552 18.8681 7.65316L19.3285 7.62157ZM20.3623 3.72375C20.5928 3.71333 20.5928 3.71347 20.5928 3.7136C20.5928 3.71363 20.5928 3.71375 20.5928 3.71381C20.5928 3.71393 20.5928 3.71403 20.5928 3.71408C20.5928 3.7142 20.5928 3.71418 20.5928 3.71403C20.5928 3.71373 20.5928 3.71291 20.5928 3.71157C20.5927 3.70891 20.5926 3.7042 20.5926 3.6976C20.5926 3.68439 20.5928 3.66362 20.5941 3.63635C20.5966 3.58173 20.6032 3.50154 20.6195 3.40409C20.6523 3.2085 20.7236 2.94814 20.8763 2.68577C21.1732 2.17569 21.804 1.61286 23.1974 1.55505L23.1783 1.09397C21.6432 1.15766 20.8612 1.79445 20.4775 2.45361C20.2899 2.77587 20.2038 3.09253 20.1644 3.32782C20.1446 3.44581 20.1364 3.54452 20.1331 3.61493C20.1315 3.65018 20.1311 3.67847 20.1311 3.69868C20.1311 3.70879 20.1313 3.7169 20.1314 3.72285C20.1315 3.72583 20.1316 3.72828 20.1316 3.73017C20.1317 3.73111 20.1317 3.73192 20.1317 3.73259C20.1317 3.73292 20.1318 3.73322 20.1318 3.73349C20.1318 3.73362 20.1318 3.73379 20.1318 3.73385C20.1318 3.73402 20.1318 3.73417 20.3623 3.72375ZM23.1976 1.55504C24.6487 1.49369 26.427 1.57463 27.8473 1.67165C28.5564 1.72008 29.1744 1.77238 29.6149 1.81256C29.8352 1.83265 30.0111 1.84971 30.1317 1.86173C30.1921 1.86774 30.2386 1.87249 30.27 1.87573C30.2857 1.87735 30.2976 1.8786 30.3056 1.87943C30.3096 1.87985 30.3126 1.88016 30.3145 1.88037C30.3155 1.88048 30.3163 1.88056 30.3168 1.88061C30.317 1.88063 30.3172 1.88065 30.3173 1.88066C30.3173 1.88067 30.3174 1.88067 30.3174 1.88068C30.3174 1.88068 30.3174 1.88068 30.3419 1.65124C30.3664 1.42181 30.3663 1.4218 30.3663 1.4218C30.3663 1.4218 30.3662 1.42179 30.3661 1.42178C30.366 1.42177 30.3658 1.42174 30.3655 1.42172C30.365 1.42166 30.3642 1.42157 30.3631 1.42146C30.361 1.42124 30.3579 1.42091 30.3538 1.42048C30.3456 1.41962 30.3334 1.41835 30.3174 1.4167C30.2855 1.4134 30.2384 1.40859 30.1775 1.40253C30.0556 1.39039 29.8785 1.37321 29.6568 1.353C29.2136 1.31257 28.5921 1.25997 27.8788 1.21125C26.4542 1.11394 24.6554 1.03152 23.1781 1.09398L23.1976 1.55504ZM30.3419 1.65124C30.1112 1.65045 30.1112 1.65043 30.1112 1.65041C30.1112 1.65041 30.1112 1.6504 30.1112 1.65041C30.1112 1.65042 30.1112 1.65046 30.1112 1.65054C30.1112 1.65069 30.1112 1.65096 30.1112 1.65135C30.1112 1.65212 30.1111 1.65338 30.1111 1.65509C30.1111 1.65853 30.111 1.66382 30.1109 1.67088C30.1108 1.685 30.1104 1.70617 30.1097 1.73367C30.1083 1.78867 30.1057 1.86886 30.1006 1.96837C30.0903 2.16762 30.0702 2.44313 30.031 2.74811C29.9512 3.36916 29.7966 4.07111 29.5121 4.51493L29.9006 4.76395C30.2448 4.22697 30.408 3.43483 30.4887 2.80697C30.5298 2.4875 30.5507 2.19986 30.5614 1.99208C30.5668 1.88807 30.5696 1.80378 30.571 1.74516C30.5718 1.71585 30.5722 1.69294 30.5724 1.67717C30.5725 1.66929 30.5725 1.66319 30.5726 1.65897C30.5726 1.65686 30.5726 1.65522 30.5726 1.65406C30.5726 1.65348 30.5726 1.65302 30.5726 1.65268C30.5726 1.65251 30.5726 1.65237 30.5726 1.65227C30.5726 1.65221 30.5726 1.65215 30.5726 1.65213C30.5726 1.65208 30.5726 1.65203 30.3419 1.65124ZM29.4854 4.70581C29.5572 4.94499 29.6204 5.43315 29.6347 6.06142C29.6488 6.68361 29.6147 7.42414 29.5013 8.16039C29.3878 8.89816 29.1963 9.62149 28.9014 10.2154C28.6061 10.81 28.2174 11.255 27.7186 11.4729L27.9033 11.8958C28.5369 11.6191 28.9917 11.0711 29.3147 10.4206C29.6381 9.76939 29.8397 8.99557 29.9575 8.23058C30.0754 7.46407 30.1107 6.69624 30.096 6.05093C30.0815 5.4117 30.0175 4.87322 29.9274 4.57307L29.4854 4.70581Z" fill="#393761" mask="url(#path-6-outside-1_911_46268)"/>
<path d="M30.6182 78.9962L30.8155 78.8L30.6565 78.7995C31.8878 56.3751 32.0025 43.6803 31.965 39.8146L31.965 39.8143C31.9596 39.386 31.9543 39.0662 31.9504 38.8534C31.9485 38.747 31.9469 38.6674 31.9458 38.6143L31.9445 38.5546L31.9441 38.5396L31.944 38.5359L31.944 38.5349L31.944 38.5347L31.944 38.5346L31.9414 38.4264L31.8332 38.4221L15.7321 37.7879L15.6216 37.7835L15.6126 37.8937C15.5717 38.3946 15.533 38.898 15.4989 39.4085C14.8752 48.2378 15.1163 58.1062 15.5131 65.7655C15.7115 69.5956 15.9488 72.8741 16.1366 75.1952C16.2305 76.3557 16.3119 77.2769 16.37 77.9081C16.399 78.2236 16.4221 78.4667 16.438 78.6309L16.4563 78.8173L16.461 78.8647L16.4622 78.8766L16.4625 78.8796L16.4625 78.8804C16.4626 78.8806 16.4626 78.8807 16.5774 78.869L16.4626 78.8807L16.4731 78.984L16.577 78.9844L21.1317 79L21.2368 79.0003L21.2469 78.8957C22.2994 68.0506 22.8686 59.5366 23.1725 53.6914C23.3305 50.6811 23.4191 48.3779 23.4683 46.827C23.4929 46.0515 23.5076 45.4642 23.5162 45.0706C23.5204 44.8738 23.5232 44.7255 23.5249 44.6263L23.5254 44.5912L23.8935 44.5925L25.867 78.9055L25.8732 79.0139L25.9818 79.0142L30.4128 79.0294L30.4029 79.2105L30.6159 78.9985L30.6182 78.9962Z" fill="#397497" stroke="black" stroke-width="0.230737"/>
<g style="mix-blend-mode:multiply" opacity="0.2">
<path d="M25.8669 78.9056L25.8731 79.0139L25.9817 79.0143L28.5684 79.0231L28.672 79.0235L28.6744 79.0235L28.6747 78.9081L28.6747 78.9079L28.7872 78.8962L25.1993 44.4693L25.1885 44.3662L25.0849 44.3659L24.0028 44.3622L23.8802 44.3618L23.8872 44.4842L25.8669 78.9056Z" fill="#D22C55"/>
<path d="M25.8669 78.9056L25.8731 79.0139L25.9817 79.0143L28.5684 79.0231L28.672 79.0235L28.6744 79.0235L28.6747 78.9081L28.6747 78.9079L28.7872 78.8962L25.1993 44.4693L25.1885 44.3662L25.0849 44.3659L24.0028 44.3622L23.8802 44.3618L23.8872 44.4842L25.8669 78.9056Z" stroke="black" stroke-width="0.230737"/>
</g>
<g style="mix-blend-mode:multiply" opacity="0.2">
<path d="M23.5269 44.4758L23.4115 44.4734L23.4119 44.3624L22.6597 44.3598L22.5565 44.3594L22.5447 44.462L18.5876 78.8631L18.5728 78.9912L18.7018 78.9916L21.1314 78.9999L21.2365 79.0003L21.2466 78.8957C22.2992 68.0505 22.8683 59.5365 23.1722 53.6913L23.1722 53.6913L23.1723 53.6897L23.5224 44.5935L23.5265 44.5935L23.5269 44.4781L23.5269 44.4758Z" fill="#D22C55"/>
<path d="M23.5269 44.4758L23.4115 44.4734L23.4119 44.3624L22.6597 44.3598L22.5565 44.3594L22.5447 44.462L18.5876 78.8631L18.5728 78.9912L18.7018 78.9916L21.1314 78.9999L21.2365 79.0003L21.2466 78.8957C22.2992 68.0505 22.8683 59.5365 23.1722 53.6913L23.1722 53.6913L23.1723 53.6897L23.5224 44.5935L23.5265 44.5935L23.5269 44.4781L23.5269 44.4758Z" stroke="black" stroke-width="0.230737"/>
</g>
<g style="mix-blend-mode:multiply" opacity="0.2">
<path d="M31.9013 39.9203L31.9686 39.8887L31.9677 39.8143C31.9622 39.3861 31.957 39.0663 31.9531 38.8535C31.9511 38.7471 31.9495 38.6674 31.9484 38.6144L31.9471 38.5546L31.9468 38.5397L31.9467 38.5359L31.9467 38.535L31.9467 38.5348L31.9467 38.5347L31.9441 38.4264L31.8359 38.4221L15.7348 37.7879L15.6243 37.7836L15.6153 37.8938C15.5743 38.3947 15.5356 38.8982 15.5015 39.4088L15.4963 39.4877L15.568 39.5211C18.0649 40.6828 24.9019 43.1999 31.9013 39.9203Z" fill="#D22C55"/>
<path d="M31.9013 39.9203L31.9686 39.8887L31.9677 39.8143C31.9622 39.3861 31.957 39.0663 31.9531 38.8535C31.9511 38.7471 31.9495 38.6674 31.9484 38.6144L31.9471 38.5546L31.9468 38.5397L31.9467 38.5359L31.9467 38.535L31.9467 38.5348L31.9467 38.5347L31.9441 38.4264L31.8359 38.4221L15.7348 37.7879L15.6243 37.7836L15.6153 37.8938C15.5743 38.3947 15.5356 38.8982 15.5015 39.4088L15.4963 39.4877L15.568 39.5211C18.0649 40.6828 24.9019 43.1999 31.9013 39.9203Z" stroke="black" stroke-width="0.230737"/>
</g>
<mask id="path-12-outside-2_911_46268" maskUnits="userSpaceOnUse" x="9.63642" y="12.2725" width="28.0956" height="28.0956" fill="black">
<rect fill="white" x="9.63642" y="12.2725" width="28.0956" height="28.0956"/>
<path fill-rule="evenodd" clip-rule="evenodd" d="M30.444 16.8956C32.8942 17.6908 35.7601 18.7902 36.0328 19.6544C36.3797 20.7539 36.6846 24.0522 36.6846 24.0522L36.6869 24.0522L33.9736 24.666L31.7429 25.1706L31.2589 23.6714L31.8334 38.5375C21.8353 41.969 15.7323 37.9033 15.7323 37.9033L16.4673 23.3855L15.3402 25.0429L13.6906 24.3289L10.6954 23.0289C10.6954 23.0289 13.1572 19.0201 13.9935 18.0516C14.3764 17.608 16.0798 17.1033 17.8105 16.687C17.6051 16.1878 17.4882 15.5669 17.8269 15.0605C19.4411 12.6478 29.159 12.868 30.527 14.9701C30.9101 15.5603 30.7305 16.2953 30.444 16.8956Z"/>
</mask>
<path fill-rule="evenodd" clip-rule="evenodd" d="M30.444 16.8956C32.8942 17.6908 35.7601 18.7902 36.0328 19.6544C36.3797 20.7539 36.6846 24.0522 36.6846 24.0522L36.6869 24.0522L33.9736 24.666L31.7429 25.1706L31.2589 23.6714L31.8334 38.5375C21.8353 41.969 15.7323 37.9033 15.7323 37.9033L16.4673 23.3855L15.3402 25.0429L13.6906 24.3289L10.6954 23.0289C10.6954 23.0289 13.1572 19.0201 13.9935 18.0516C14.3764 17.608 16.0798 17.1033 17.8105 16.687C17.6051 16.1878 17.4882 15.5669 17.8269 15.0605C19.4411 12.6478 29.159 12.868 30.527 14.9701C30.9101 15.5603 30.7305 16.2953 30.444 16.8956Z" fill="#397497"/>
<path d="M30.444 16.8956L30.2358 16.7962L30.1224 17.0338L30.3728 17.115L30.444 16.8956ZM36.0328 19.6544L35.8127 19.7239L35.8127 19.7239L36.0328 19.6544ZM36.6846 24.0522L36.4548 24.0735L36.4741 24.2823L36.6838 24.283L36.6846 24.0522ZM36.6869 24.0522L36.7378 24.2773L36.6877 23.8215L36.6869 24.0522ZM33.9736 24.666L33.9227 24.4409L33.9227 24.4409L33.9736 24.666ZM31.7429 25.1706L31.5234 25.2415L31.5882 25.4422L31.7939 25.3956L31.7429 25.1706ZM31.2589 23.6714L31.4785 23.6005L31.0283 23.6803L31.2589 23.6714ZM31.8334 38.5375L31.9083 38.7558L32.0706 38.7001L32.0639 38.5286L31.8334 38.5375ZM15.7323 37.9033L15.5019 37.8917L15.4952 38.0226L15.6044 38.0954L15.7323 37.9033ZM16.4673 23.3855L16.6977 23.3971L16.7393 22.575L16.2765 23.2557L16.4673 23.3855ZM15.3402 25.0429L15.2485 25.2547L15.4237 25.3305L15.531 25.1727L15.3402 25.0429ZM13.6906 24.3289L13.5987 24.5406L13.5989 24.5407L13.6906 24.3289ZM10.6954 23.0289L10.4988 22.9081L10.3597 23.1347L10.6035 23.2405L10.6954 23.0289ZM13.9935 18.0516L14.1682 18.2024L14.1682 18.2023L13.9935 18.0516ZM17.8105 16.687L17.8645 16.9114L18.1264 16.8484L18.0239 16.5992L17.8105 16.687ZM17.8269 15.0605L17.6351 14.9322L17.6351 14.9322L17.8269 15.0605ZM30.527 14.9701L30.7206 14.8444L30.7204 14.8442L30.527 14.9701ZM30.3728 17.115C31.5951 17.5117 32.9143 17.9822 33.9592 18.459C34.4822 18.6977 34.929 18.9347 35.2585 19.1608C35.4231 19.2739 35.5534 19.3807 35.648 19.4798C35.7441 19.5803 35.7933 19.6621 35.8127 19.7239L36.2528 19.585C36.2041 19.4307 36.1041 19.2891 35.9817 19.161C35.8578 19.0314 35.7003 18.9044 35.5196 18.7804C35.1585 18.5325 34.6845 18.2828 34.1508 18.0392C33.0819 17.5515 31.7431 17.0746 30.5152 16.6761L30.3728 17.115ZM35.8127 19.7239C35.9787 20.2497 36.1396 21.3268 36.2598 22.2941C36.3194 22.7732 36.3681 23.2182 36.402 23.5436C36.419 23.7062 36.4322 23.8389 36.4411 23.9308C36.4456 23.9767 36.4491 24.0125 36.4514 24.0367C36.4525 24.0488 36.4534 24.0581 36.454 24.0643C36.4542 24.0673 36.4545 24.0697 36.4546 24.0712C36.4547 24.072 36.4547 24.0726 36.4548 24.0729C36.4548 24.0731 36.4548 24.0733 36.4548 24.0734C36.4548 24.0734 36.4548 24.0734 36.4548 24.0735C36.4548 24.0735 36.4548 24.0735 36.6846 24.0522C36.9143 24.031 36.9143 24.031 36.9143 24.031C36.9143 24.0309 36.9143 24.0309 36.9143 24.0308C36.9143 24.0307 36.9143 24.0305 36.9143 24.0303C36.9142 24.0299 36.9142 24.0293 36.9141 24.0285C36.9139 24.0268 36.9137 24.0244 36.9134 24.0212C36.9128 24.0149 36.9119 24.0054 36.9108 23.9931C36.9084 23.9685 36.905 23.9323 36.9004 23.886C36.8914 23.7932 36.8781 23.6595 36.861 23.4958C36.8269 23.1684 36.7778 22.7201 36.7178 22.2372C36.5988 21.2805 36.4339 20.1587 36.2528 19.585L35.8127 19.7239ZM36.6838 24.283L36.6861 24.283L36.6877 23.8215L36.6854 23.8215L36.6838 24.283ZM36.636 23.8272L33.9227 24.4409L34.0245 24.891L36.7378 24.2773L36.636 23.8272ZM33.9227 24.4409L31.692 24.9455L31.7939 25.3956L34.0245 24.891L33.9227 24.4409ZM31.9625 25.0997L31.4785 23.6005L31.0393 23.7423L31.5234 25.2415L31.9625 25.0997ZM31.0283 23.6803L31.6028 38.5465L32.0639 38.5286L31.4895 23.6625L31.0283 23.6803ZM31.7585 38.3193C26.8018 40.0205 22.8191 39.861 20.0813 39.2815C18.7116 38.9916 17.6519 38.5962 16.9367 38.2745C16.5792 38.1137 16.3078 37.9714 16.1269 37.87C16.0364 37.8194 15.9686 37.7789 15.924 37.7515C15.9017 37.7378 15.8852 37.7274 15.8745 37.7206C15.8692 37.7171 15.8653 37.7146 15.863 37.7131C15.8618 37.7123 15.8609 37.7118 15.8605 37.7115C15.8603 37.7113 15.8601 37.7112 15.8601 37.7112C15.8601 37.7112 15.8601 37.7112 15.8601 37.7112C15.8601 37.7112 15.8602 37.7113 15.7323 37.9033C15.6044 38.0954 15.6045 38.0954 15.6047 38.0955C15.6047 38.0956 15.6049 38.0957 15.6051 38.0958C15.6054 38.096 15.6058 38.0963 15.6064 38.0967C15.6074 38.0973 15.6088 38.0983 15.6106 38.0994C15.6141 38.1018 15.6192 38.105 15.6257 38.1092C15.6388 38.1176 15.6577 38.1295 15.6826 38.1448C15.7322 38.1753 15.8053 38.2188 15.9013 38.2726C16.0932 38.3802 16.3767 38.5287 16.7475 38.6954C17.489 39.0289 18.58 39.4354 19.9858 39.733C22.799 40.3285 26.8668 40.4861 31.9083 38.7558L31.7585 38.3193ZM15.9627 37.915L16.6977 23.3971L16.2368 23.3738L15.5019 37.8917L15.9627 37.915ZM16.2765 23.2557L15.1494 24.9132L15.531 25.1727L16.6581 23.5152L16.2765 23.2557ZM15.4318 24.8312L13.7822 24.1172L13.5989 24.5407L15.2485 25.2547L15.4318 24.8312ZM13.7824 24.1173L10.7873 22.8172L10.6035 23.2405L13.5987 24.5406L13.7824 24.1173ZM10.6954 23.0289C10.892 23.1496 10.892 23.1496 10.892 23.1496C10.8921 23.1495 10.8921 23.1495 10.8921 23.1494C10.8922 23.1493 10.8923 23.1491 10.8924 23.1489C10.8927 23.1484 10.8932 23.1477 10.8938 23.1468C10.8949 23.1449 10.8967 23.142 10.899 23.1382C10.9037 23.1306 10.9106 23.1194 10.9197 23.1046C10.9379 23.0751 10.9647 23.0317 10.9991 22.9761C11.0679 22.8648 11.1672 22.7047 11.2889 22.5095C11.5324 22.1191 11.8658 21.5885 12.2251 21.0279C12.9487 19.8991 13.7633 18.6713 14.1682 18.2024L13.8189 17.9008C13.3875 18.4004 12.553 19.6612 11.8366 20.7789C11.4759 21.3416 11.1416 21.8738 10.8974 22.2652C10.7752 22.461 10.6757 22.6216 10.6066 22.7334C10.572 22.7892 10.5451 22.8329 10.5268 22.8626C10.5177 22.8774 10.5107 22.8888 10.506 22.8964C10.5036 22.9003 10.5018 22.9032 10.5006 22.9051C10.5 22.9061 10.4996 22.9068 10.4993 22.9073C10.4991 22.9076 10.499 22.9078 10.4989 22.9079C10.4989 22.908 10.4988 22.908 10.4988 22.9081C10.4988 22.9081 10.4988 22.9081 10.6954 23.0289ZM14.1682 18.2023C14.2311 18.1294 14.3725 18.0315 14.6084 17.9175C14.8371 17.8071 15.1301 17.6929 15.4706 17.5776C16.1509 17.3472 17.0017 17.1189 17.8645 16.9114L17.7566 16.4627C16.8886 16.6714 16.0223 16.9036 15.3226 17.1405C14.973 17.2589 14.6602 17.38 14.4077 17.502C14.1625 17.6204 13.9473 17.7519 13.8188 17.9008L14.1682 18.2023ZM18.0239 16.5992C17.8261 16.1185 17.7469 15.5953 18.0187 15.1887L17.6351 14.9322C17.2296 15.5386 17.3841 16.2571 17.5971 16.7748L18.0239 16.5992ZM18.0186 15.1888C18.1913 14.9308 18.4834 14.6928 18.8867 14.4822C19.2884 14.2725 19.7871 14.097 20.3551 13.9569C21.4912 13.6769 22.8802 13.545 24.2679 13.553C25.6556 13.561 27.0302 13.7089 28.1372 13.9821C28.6908 14.1188 29.1711 14.2852 29.5505 14.4773C29.9331 14.6711 30.1941 14.8815 30.3336 15.0959L30.7204 14.8442C30.518 14.5331 30.176 14.2768 29.759 14.0656C29.3388 13.8528 28.8228 13.676 28.2478 13.5341C27.0974 13.2502 25.6852 13.0997 24.2706 13.0915C22.8561 13.0833 21.4274 13.2173 20.2447 13.5089C19.6533 13.6547 19.1172 13.8413 18.6731 14.0731C18.2307 14.3041 17.866 14.587 17.6351 14.9322L18.0186 15.1888ZM30.3335 15.0957C30.6462 15.5775 30.516 16.2089 30.2358 16.7962L30.6523 16.9949C30.9449 16.3816 31.1741 15.5431 30.7206 14.8444L30.3335 15.0957Z" fill="black" mask="url(#path-12-outside-2_911_46268)"/>
<path d="M22.1814 17.007C22.4994 17.5567 23.0865 18.1026 24.1489 18.185L24.1368 18.197L24.4153 18.1979C25.6493 18.2021 26.3058 17.6164 26.6475 17.0237C26.8165 16.7305 26.9073 16.4381 26.956 16.2197C26.9804 16.1103 26.9944 16.0188 27.0023 15.9542C27.0062 15.9218 27.0086 15.8962 27.0101 15.8783L27.0116 15.8574L27.012 15.8516L27.0121 15.8499L27.0121 15.8493L27.0121 15.8491C27.0121 15.8491 27.0121 15.849 26.8969 15.8436L27.0121 15.849L27.0128 15.8345L27.0099 15.8203L26.7693 14.6567L26.7693 14.6565L26.5287 13.486L26.5098 13.3942L26.4161 13.3939L22.489 13.3804L22.3978 13.3801L22.3764 13.4687L22.0862 14.6722L22.0862 14.6722L21.8147 15.7973L21.8108 15.8135L21.8116 15.8302L21.9268 15.8243C21.8116 15.8302 21.8116 15.8303 21.8116 15.8303L21.8116 15.8305L21.8117 15.8311L21.8118 15.8328L21.8121 15.8386L21.8138 15.8595C21.8153 15.8774 21.8179 15.903 21.822 15.9354C21.8301 16.0001 21.8445 16.0916 21.8694 16.2012C21.919 16.4199 22.0111 16.7128 22.1814 17.007Z" fill="white" stroke="black" stroke-width="0.230737"/>
<path d="M22.0837 14.6723L22.0666 14.7432L22.1233 14.7891C22.2185 14.8659 22.3161 14.9501 22.4165 15.0365C22.6165 15.2089 22.827 15.3904 23.0491 15.5412C23.3899 15.7725 23.7785 15.9484 24.2544 15.95C24.7272 15.9517 25.1983 15.7768 25.6208 15.5449C26.0443 15.3124 26.4279 15.0176 26.7275 14.7687L26.7807 14.7245L26.7668 14.6567L26.5262 13.4861L26.5073 13.3942L26.4136 13.3939L22.4865 13.3805L22.3953 13.3802L22.3739 13.4688L22.0837 14.6723Z" fill="#D9DCED" stroke="black" stroke-width="0.230737"/>
<path d="M18.6845 7.73623C18.5758 8.11963 18.6762 8.55016 18.8859 8.85472C19.071 9.12337 19.3625 9.31882 19.6917 9.26396C19.6984 9.29893 19.7067 9.34076 19.7167 9.38881C19.7493 9.54634 19.8001 9.77091 19.8727 10.0402C20.0178 10.5785 20.2506 11.2976 20.6015 12.0183C21.2998 13.4527 22.487 14.9331 24.4148 14.9397C26.3431 14.9463 27.5138 13.4845 28.1956 12.065C28.538 11.3519 28.7624 10.6396 28.9012 10.1064C28.9706 9.83953 29.0187 9.61697 29.0495 9.46082C29.0618 9.39884 29.0713 9.34729 29.0783 9.30758C29.4906 9.2701 29.7919 8.97142 29.9542 8.6241C30.128 8.2524 30.1607 7.78938 29.9829 7.45593L29.9827 7.45562C29.8919 7.28663 29.7705 7.18848 29.6323 7.14913C29.4981 7.1109 29.3641 7.13274 29.2529 7.17092C29.141 7.20929 29.0428 7.26736 28.9738 7.31428C28.9694 7.31728 28.9651 7.32025 28.9609 7.32317C28.6629 6.86471 28.5 6.22754 28.4126 5.67881C28.3661 5.38696 28.3417 5.1248 28.3289 4.93566C28.3225 4.84115 28.319 4.76503 28.3171 4.71273C28.3162 4.68658 28.3156 4.6664 28.3153 4.65287L28.315 4.63765L28.315 4.63393L28.315 4.63308L28.315 4.63291L28.315 4.63289L28.3121 4.34764L28.116 4.55453L28.116 4.55454L28.116 4.5546L28.1159 4.55471L28.1154 4.55514L28.112 4.55858C28.1088 4.56184 28.1035 4.56701 28.0962 4.57391C28.0816 4.5877 28.0589 4.60839 28.0277 4.6345C27.9654 4.68673 27.8693 4.76063 27.7374 4.84442C27.4736 5.01193 27.0656 5.21924 26.4952 5.37177C25.3554 5.67653 23.5583 5.76486 20.9539 4.86696L20.7847 4.80861L20.8015 4.98686C20.8937 5.96521 20.6507 6.60495 20.3926 6.99764C20.2629 7.19489 20.1281 7.33169 20.0269 7.41855C19.9891 7.45095 19.9561 7.47637 19.9297 7.49536C19.9076 7.47708 19.8809 7.45584 19.8504 7.43326C19.7616 7.3676 19.6357 7.2869 19.4966 7.23796C19.3584 7.18931 19.1914 7.16681 19.0346 7.24203C18.8759 7.31813 18.7568 7.4801 18.6845 7.73623ZM18.6845 7.73623C18.6845 7.7362 18.6845 7.73617 18.6845 7.73615L18.7955 7.76763L18.6845 7.73631C18.6845 7.73628 18.6845 7.73625 18.6845 7.73623ZM28.9819 9.3115L28.9823 9.19647C28.9816 9.19636 28.9808 9.19624 28.98 9.19612L28.9796 9.31149L28.9816 9.3115L28.9819 9.3115Z" fill="white" stroke="black" stroke-width="0.230737"/>
<path d="M24.7662 9.89355L24.5649 7.25397L24.5649 7.25356L24.5649 7.25356C24.5587 7.16258 24.6246 7.08254 24.7178 7.0762C24.8087 7.07002 24.8887 7.13582 24.8952 7.22889L24.8951 7.2287L24.7662 9.89355ZM24.7662 9.89355L24.2872 9.89192C24.195 9.8916 24.1217 9.96443 24.1214 10.0566C24.1211 10.1487 24.1939 10.2221 24.286 10.2224L25.0682 10.225L25.0705 10.225L25.1246 10.2252L25.1204 10.1714L24.8952 7.22913L25.0707 10.1752L25.0684 10.1754L25.021 10.179L25.0207 10.175L24.2862 10.1725C24.2216 10.1723 24.171 10.1214 24.1712 10.0567C24.1715 9.99214 24.2224 9.94155 24.287 9.94177L24.77 9.94342L24.7662 9.89355Z" fill="#423C86" stroke="#423C86" stroke-width="0.0997156"/>
<path d="M26.2099 8.58452C26.2097 8.64514 26.2589 8.68508 26.3051 8.70699C26.3547 8.73053 26.4199 8.74359 26.49 8.74383C26.56 8.74407 26.6254 8.73146 26.6751 8.70826C26.7215 8.68666 26.7709 8.64706 26.7711 8.58644L26.7727 8.11122C26.7729 8.0506 26.7238 8.01066 26.6776 7.98874C26.628 7.96521 26.5627 7.95215 26.4927 7.95191C26.4226 7.95167 26.3573 7.96428 26.3075 7.98748C26.2612 8.00908 26.2118 8.04868 26.2116 8.1093L26.2099 8.58452Z" fill="#423C86" stroke="#423C86" stroke-width="0.0997156"/>
<path d="M22.5183 8.57182C22.5181 8.63245 22.5673 8.67238 22.6135 8.6943C22.6631 8.71784 22.7283 8.7309 22.7984 8.73113C22.8684 8.73137 22.9338 8.71876 22.9835 8.69556C23.0299 8.67396 23.0793 8.63437 23.0795 8.57374L23.0811 8.09853C23.0814 8.0379 23.0322 7.99797 22.986 7.97605C22.9364 7.95251 22.8711 7.93945 22.8011 7.93921C22.7311 7.93897 22.6657 7.95159 22.6159 7.97478C22.5696 7.99638 22.5202 8.03598 22.52 8.09661L22.5183 8.57182Z" fill="#423C86" stroke="#423C86" stroke-width="0.0997156"/>
<path d="M25.8825 7.57648L25.8943 7.57652L25.9 7.57369C25.9369 7.57066 25.9714 7.55427 25.9991 7.52947L25.9991 7.52948L25.9999 7.5287C26.3247 7.22484 26.6618 7.22095 26.9244 7.29582C27.1899 7.37148 27.3778 7.52781 27.3915 7.53964C27.4615 7.60007 27.5645 7.58948 27.6234 7.52118C27.6838 7.45117 27.6732 7.34824 27.6049 7.2893L27.605 7.28922L27.6024 7.28726C27.6045 7.28886 27.5846 7.27265 27.5574 7.25276C27.5286 7.23175 27.4873 7.20318 27.4354 7.17168C27.3318 7.10876 27.1852 7.03356 27.0115 6.98355C26.6624 6.88305 26.2034 6.88473 25.7709 7.2892L25.7709 7.2892L25.7707 7.28935C25.7051 7.35129 25.7007 7.45568 25.7622 7.52231C25.7943 7.56075 25.8415 7.57634 25.8825 7.57648Z" fill="#423C86" stroke="#423C86" stroke-width="0.0997156"/>
<path d="M21.7273 7.52264L21.7273 7.52267L21.7287 7.52143C21.7287 7.52143 21.7288 7.52136 21.7289 7.52123L21.7296 7.52064L21.7319 7.51863L21.74 7.51204C21.7468 7.50662 21.7562 7.49935 21.7681 7.49066C21.7917 7.4733 21.825 7.45043 21.8662 7.4256C21.9488 7.37585 22.0625 7.31881 22.1952 7.28201C22.4585 7.20897 22.796 7.21515 23.1185 7.52077C23.1456 7.54782 23.1825 7.56371 23.2186 7.56689L23.2243 7.56976L23.236 7.5698C23.2813 7.56995 23.3235 7.54946 23.3545 7.51868L23.3545 7.5187L23.3554 7.51777C23.4187 7.45164 23.4155 7.34625 23.3498 7.28344L23.3497 7.28329C22.9199 6.87587 22.4609 6.87105 22.1111 6.96916C21.9371 7.01798 21.79 7.09218 21.686 7.15438C21.6339 7.18553 21.5924 7.21381 21.5634 7.23463C21.5387 7.25245 21.5199 7.2673 21.5181 7.2688L21.5181 7.2688L21.5167 7.26995C21.4462 7.32663 21.4362 7.43228 21.4951 7.50206C21.552 7.57225 21.6577 7.58188 21.7273 7.52264Z" fill="#423C86" stroke="#423C86" stroke-width="0.0997156"/>
<path d="M23.8978 11.0656L23.8978 11.0656L23.8974 11.0663C23.8551 11.1468 23.883 11.2457 23.9622 11.2897C23.9953 11.3095 24.2791 11.4566 24.6394 11.4578L24.6417 11.4578C24.8339 11.4585 25.0485 11.4159 25.2585 11.2913L25.2585 11.2914L25.2594 11.2908C25.3381 11.242 25.3614 11.1429 25.316 11.0644L25.316 11.0644L25.3152 11.0631C25.2664 10.9844 25.1673 10.9611 25.0888 11.0065L25.0888 11.0065L25.0883 11.0068C24.8654 11.1395 24.6264 11.1396 24.4394 11.1044C24.2622 11.0711 24.1359 11.007 24.1222 11C24.0432 10.9569 23.9413 10.9859 23.8978 11.0656Z" fill="#423C86" stroke="#423C86" stroke-width="0.0997156"/>
<path d="M20.2457 4.0668C20.2423 4.05729 20.2371 4.04337 20.2298 4.02608C20.2144 3.98961 20.1904 3.93921 20.1566 3.88407C20.0881 3.77255 19.9841 3.6492 19.8367 3.57634L20.2457 4.0668ZM20.2457 4.0668L20.2457 4.06738L20.2515 4.08516C20.2831 4.18085 20.3731 4.24522 20.4712 4.24555L20.4735 4.24556C20.4949 4.24564 20.5171 4.24118 20.5264 4.23931C20.5272 4.23915 20.5279 4.23901 20.5285 4.23889L20.5286 4.23948L20.5398 4.23607C20.6601 4.19948 20.7302 4.071 20.6932 3.94934L20.6933 3.94933L20.6924 3.94679C20.6925 3.94689 20.6924 3.94682 20.6922 3.94623L20.6916 3.94421L20.6894 3.9376L20.6822 3.91644C20.676 3.89915 20.6673 3.87587 20.6556 3.84807C20.6323 3.79258 20.5971 3.71855 20.5474 3.63782C20.4484 3.47718 20.2882 3.2843 20.0438 3.16236L20.0438 3.16236L20.0436 3.16223C19.7268 3.00511 19.36 3.00888 18.9639 3.15894L18.9639 3.15894L18.9637 3.159C18.8445 3.20439 18.7838 3.3376 18.8295 3.45762C18.8749 3.57683 19.0081 3.63751 19.1281 3.59182L19.0871 3.484L20.2457 4.0668Z" fill="#393761" stroke="#393761" stroke-width="0.230737"/>
<path d="M20.1515 2.09107L20.1515 2.09107L20.151 2.09171C20.1313 2.12218 19.9965 2.3511 19.9823 2.75553C19.9679 3.16112 20.0752 3.73456 20.5273 4.45201C20.5478 4.48585 20.5754 4.51172 20.6066 4.52967L20.6065 4.56225L20.7219 4.56265C20.7658 4.5628 20.8099 4.54911 20.8454 4.52707L20.8455 4.52709L20.8473 4.52588C20.9521 4.45805 20.9866 4.31618 20.9171 4.20794C20.5286 3.59132 20.441 3.11737 20.4458 2.8037C20.4482 2.64623 20.4739 2.52714 20.4983 2.44856C20.5177 2.38595 20.5362 2.34887 20.5434 2.33519C20.6061 2.22778 20.5754 2.09053 20.4706 2.02163L20.4706 2.02161L20.4687 2.02043C20.3565 1.94979 20.2183 1.98936 20.1515 2.09107Z" fill="#393761" stroke="#393761" stroke-width="0.230737"/>
<path d="M9.39977 32.1164L9.39959 32.1163L9.39671 32.1225L9.50127 32.1713L9.39668 32.1226L9.39662 32.1227L9.39641 32.1231L9.39564 32.1248L9.39272 32.1311L9.38168 32.1553C9.3721 32.1765 9.35823 32.2075 9.34088 32.2471C9.30619 32.3264 9.25757 32.4404 9.20158 32.5799C9.08969 32.8586 8.94793 33.2404 8.82919 33.6509C8.71072 34.0605 8.61373 34.5037 8.59404 34.904C8.57457 35.2998 8.62928 35.6784 8.84138 35.9347L8.84153 35.9349C9.13066 36.2827 9.50948 36.4768 9.8265 36.561C9.98475 36.603 10.1324 36.6189 10.2502 36.6105C10.3087 36.6063 10.3649 36.5957 10.4127 36.5758C10.4587 36.5567 10.5122 36.5223 10.5387 36.4612L10.5387 36.4612L10.5391 36.4602C10.5971 36.3227 10.5555 36.1606 10.4964 36.0231C10.4345 35.8788 10.3384 35.7276 10.241 35.5929C10.2404 35.592 10.2397 35.5911 10.2391 35.5902C10.3031 35.6233 10.3701 35.6565 10.4383 35.6887C10.6362 35.782 10.8502 35.8688 11.0388 35.9127C11.1331 35.9345 11.2264 35.947 11.3112 35.9417C11.3955 35.9364 11.4823 35.9125 11.5492 35.8508C11.625 35.7809 11.6425 35.6869 11.633 35.5999C11.6237 35.5157 11.5886 35.4265 11.5435 35.3403C11.4525 35.1666 11.3022 34.971 11.1473 34.7911C11.0345 34.6601 10.9166 34.5343 10.8122 34.4273C10.9476 34.4625 11.1033 34.4996 11.2627 34.531C11.492 34.5761 11.7349 34.6105 11.9376 34.6075C12.0388 34.606 12.1362 34.5952 12.2192 34.5683C12.3018 34.5414 12.3827 34.4943 12.4298 34.4116C12.4812 34.3214 12.4691 34.2258 12.4328 34.1454C12.3977 34.0676 12.3361 33.9931 12.2657 33.9246C12.124 33.7867 11.918 33.6461 11.7125 33.522C11.5907 33.4484 11.4667 33.3793 11.3525 33.3183C11.4479 33.3199 11.5497 33.32 11.6525 33.3175C11.8685 33.3123 12.0948 33.2955 12.2776 33.2548C12.3687 33.2345 12.4549 33.207 12.5252 33.1685C12.5943 33.1305 12.662 33.074 12.6906 32.9893C12.7228 32.8939 12.6876 32.8064 12.6395 32.7414C12.5919 32.6771 12.521 32.6188 12.4432 32.5667C12.2861 32.4615 12.0698 32.3611 11.8566 32.275C11.6419 32.1882 11.424 32.1133 11.2603 32.0603C11.2386 32.0533 11.2179 32.0467 11.1983 32.0404C11.2875 31.9667 11.4005 31.868 11.5103 31.7567C11.6281 31.6374 11.7465 31.4994 11.8275 31.359C11.9063 31.2222 11.9628 31.0602 11.9165 30.9048L11.9164 30.9043C11.887 30.8073 11.8142 30.747 11.7283 30.717C11.6466 30.6885 11.5498 30.6854 11.4506 30.6963C11.2507 30.7182 11.002 30.8017 10.7482 30.9262C10.2421 31.1745 9.67562 31.6059 9.39977 32.1164Z" fill="white" stroke="black" stroke-width="0.230737"/>
<path d="M37.9223 39.9615C37.9146 39.8459 37.9089 39.696 37.9144 39.5396C37.9203 39.372 37.9393 39.191 37.9858 39.0358C38.0311 38.8846 38.1102 38.7323 38.2552 38.6596C38.3458 38.6142 38.4395 38.6256 38.5202 38.6675C38.5969 38.7073 38.6655 38.7755 38.7256 38.8551C38.8466 39.0155 38.9564 39.2536 39.04 39.5236C39.2067 40.0622 39.2818 40.7708 39.1001 41.3231L39.078 41.3195L39.0977 41.3274L39.0976 41.3275L39.0975 41.3279L39.0968 41.3297L39.0942 41.3361L39.0841 41.3608C39.0753 41.3823 39.0623 41.4136 39.0454 41.4534C39.0116 41.5331 38.9621 41.6467 38.899 41.7832C38.7731 42.056 38.5928 42.4211 38.3757 42.7893C38.1591 43.1567 37.9033 43.5314 37.6256 43.8205C37.3511 44.1063 37.038 44.3263 36.7059 44.3478C36.2541 44.377 35.8526 44.2343 35.5739 44.0614C35.4348 43.9751 35.322 43.8786 35.2476 43.7872C35.2106 43.7418 35.1798 43.6937 35.1617 43.6452C35.1443 43.5986 35.1329 43.5357 35.1603 43.4746M37.9223 39.9615L35.2656 43.5217M37.9223 39.9615C37.9044 39.9515 37.8854 39.941 37.8655 39.9301C37.7145 39.8473 37.5105 39.74 37.3001 39.6433C37.0912 39.5473 36.8697 39.4587 36.6855 39.4168C36.5942 39.396 36.5031 39.3845 36.4236 39.3942C36.3432 39.404 36.2556 39.4389 36.2085 39.5281C36.1668 39.6071 36.1722 39.6951 36.1921 39.7716C36.2123 39.8493 36.2515 39.931 36.2993 40.0113C36.3952 40.1723 36.5382 40.3486 36.6827 40.5094C36.7512 40.5857 36.8209 40.6595 36.8874 40.7276M37.9223 39.9615L36.8874 40.7276M35.1603 43.4746C35.1604 43.4744 35.1604 43.4743 35.1605 43.4742L35.2656 43.5217M35.1603 43.4746C35.1603 43.4747 35.1602 43.4748 35.1602 43.4749L35.2656 43.5217M35.1603 43.4746C35.2209 43.3384 35.3671 43.2575 35.5076 43.206C35.6551 43.1519 35.8308 43.118 35.9955 43.0963C35.9964 43.0962 35.9974 43.0961 35.9984 43.096M35.2656 43.5217C35.368 43.2909 35.8972 43.2119 36.2669 43.1849C36.1855 43.1595 36.094 43.1296 35.9984 43.096M35.9984 43.096C35.9304 43.072 35.8603 43.0462 35.7901 43.0187C35.5865 42.939 35.3765 42.843 35.2152 42.7359C35.1346 42.6824 35.0615 42.6231 35.0072 42.5579C34.9531 42.4929 34.9109 42.4135 34.9098 42.3224C34.9085 42.2194 34.9649 42.1421 35.0347 42.0893C35.1024 42.0383 35.1913 42.0026 35.285 41.9763C35.4738 41.9234 35.7192 41.8986 35.9564 41.888C36.1292 41.8802 36.3017 41.8797 36.4513 41.8823C36.3329 41.8079 36.1992 41.7202 36.0672 41.6258C35.8771 41.4899 35.6856 41.3367 35.5488 41.1871C35.4805 41.1124 35.4216 41.0341 35.3843 40.9551C35.3472 40.8765 35.3262 40.7854 35.3541 40.6943C35.3845 40.595 35.4623 40.5383 35.5458 40.5094C35.6265 40.4815 35.7229 40.4752 35.821 40.4794C36.0186 40.4879 36.2621 40.5413 36.4933 40.6057C36.63 40.6438 36.765 40.6864 36.8874 40.7276M35.9984 43.096C36.0971 43.083 36.1937 43.0742 36.2806 43.0683C35.8077 42.9194 35.0289 42.6278 35.0252 42.321C35.021 41.9817 36.1356 41.984 36.6489 42.0031C36.8024 42.0088 36.9021 42.0159 36.9021 42.0159L36.8874 40.7276" fill="white" stroke="black" stroke-width="0.230737"/>
<path d="M23.4078 17.3848L24.4573 19.5204L25.4036 17.3916" fill="white"/>
<path d="M22.6239 19.1886C22.8607 19.1894 23.0538 18.9977 23.0546 18.7609C23.0554 18.5242 22.8636 18.3311 22.6269 18.3303C22.3901 18.3295 22.1971 18.5212 22.1962 18.758C22.1954 18.9948 22.3872 19.1878 22.6239 19.1886Z" fill="white" stroke="black" stroke-width="0.230737"/>
<path d="M26.3987 19.2016C26.6357 19.2024 26.8285 19.0109 26.8293 18.7739C26.8301 18.5368 26.6386 18.344 26.4016 18.3432C26.1646 18.3424 25.9718 18.5339 25.971 18.7709C25.9702 19.0079 26.1616 19.2008 26.3987 19.2016Z" fill="white" stroke="black" stroke-width="0.230737"/>
<path d="M23.4485 21.7321L23.5527 21.6826C23.609 21.801 23.5521 21.9385 23.4403 21.9893L23.4377 21.9905L23.4377 21.9904C23.4139 22.0005 23.3815 22.0111 23.3437 22.011L23.3414 22.011C23.2543 22.0107 23.1709 21.9604 23.1331 21.8761C22.6898 20.918 22.4314 19.895 22.3672 18.8401L22.4824 18.8331M23.4485 21.7321L23.5532 21.6836C23.1332 20.7768 22.8886 19.8118 22.8283 18.8131L22.8283 18.8131L22.8283 18.8122C22.8194 18.6823 22.7085 18.5918 22.5874 18.5958L22.5874 18.5958L22.5834 18.596C22.4587 18.6045 22.3583 18.7093 22.3673 18.8409L22.4824 18.8331M23.4485 21.7321C23.476 21.7899 23.448 21.859 23.3926 21.8842C23.3764 21.8911 23.3602 21.8957 23.3441 21.8956L23.3418 21.8956C23.2979 21.8954 23.2565 21.8699 23.2382 21.8283M23.4485 21.7321L23.2382 21.8283M22.4824 18.8331C22.5457 19.8739 22.8007 20.8831 23.2382 21.8283M22.4824 18.8331C22.478 18.7684 22.5266 18.7155 22.5912 18.7111L23.2382 21.8283" fill="white" stroke="black" stroke-width="0.230737"/>
<path d="M25.7362 20.9188L25.7362 20.9189L25.7311 20.9298C25.6008 21.2131 25.463 21.5124 25.3616 21.8244C25.3204 21.9448 25.3874 22.0763 25.5062 22.1156C25.5128 22.1181 25.5193 22.12 25.5256 22.1215L25.5331 22.129L25.5809 22.1291C25.6826 22.1295 25.7698 22.0645 25.8016 21.9703L25.8016 21.9703L25.802 21.969C25.8952 21.6816 26.027 21.3953 26.1576 21.1132L26.1578 21.1127L26.1658 21.0952C26.2631 20.8822 26.3661 20.6569 26.4537 20.4287L26.4537 20.4287L26.4538 20.4283C26.7106 19.7505 26.7661 19.1434 26.5957 18.6273C26.5577 18.5018 26.4243 18.4385 26.3057 18.4776C26.1798 18.516 26.1166 18.6503 26.1568 18.7692C26.287 19.167 26.2488 19.6663 26.0216 20.2623C25.937 20.4818 25.8363 20.702 25.7362 20.9188Z" fill="white" stroke="black" stroke-width="0.230737"/>
<g filter="url(#filter0_d_911_46268)">
<path d="M51.9026 38.2992L51.9026 38.2993C51.8808 38.3759 51.8122 38.4728 51.6726 38.5867C51.5354 38.6986 51.3431 38.8159 51.0985 38.937C50.6097 39.179 49.9309 39.4268 49.114 39.6733L49.1138 39.6733C45.1235 40.882 37.9728 42.027 34.1995 42.3636L34.17 42.3662L34.1441 42.3806C33.0123 43.0077 31.8342 43.2769 30.9367 43.3888C30.4884 43.4447 30.1114 43.4612 29.8471 43.4637C29.7355 43.4648 29.6441 43.4634 29.5759 43.4614L29.9191 39.3167L29.9284 39.2051L29.8215 39.1717L29.8214 39.1717L29.8211 39.1716L29.82 39.1712L29.8151 39.1697L29.7957 39.1635C29.7786 39.158 29.7535 39.1499 29.7215 39.1393C29.6576 39.1183 29.5664 39.0876 29.4579 39.0492C29.2407 38.9725 28.9554 38.8657 28.6808 38.7449C28.4037 38.623 28.147 38.4909 27.9807 38.3652C27.8963 38.3013 27.8476 38.2481 27.8265 38.2091C27.8109 38.1801 27.8158 38.173 27.8198 38.1672C27.82 38.1671 27.8201 38.1669 27.8202 38.1667C27.82 38.1671 27.8198 38.1672 27.8199 38.1672C27.8199 38.1673 27.8259 38.1601 27.8457 38.1478C27.8671 38.1346 27.8977 38.1196 27.9389 38.1036C28.0214 38.0716 28.1336 38.0403 28.2698 38.0108C28.5415 37.9521 28.8924 37.904 29.2558 37.8691C29.6186 37.8342 29.9903 37.8128 30.3026 37.8068C30.6198 37.8006 30.8614 37.8107 30.973 37.8337C31.0785 37.8561 31.2608 37.9394 31.4889 38.0652C31.7118 38.1881 31.9632 38.3428 32.2002 38.4953C32.437 38.6475 32.658 38.7965 32.8199 38.9075C32.9008 38.963 32.9668 39.009 33.0126 39.041L33.0654 39.078L33.0791 39.0877L33.0825 39.0902L33.0834 39.0908L33.0836 39.0909L33.0836 39.0909L33.1647 38.9769L33.0837 39.0909L33.1392 39.1304L33.2045 39.111L45.1214 35.5646L45.305 35.5099L45.1971 35.3517L40.8785 29.0209L43.1921 26.0886L44.4981 24.6297C44.5587 24.7102 44.6449 24.8251 44.7531 24.9706C44.9801 25.2759 45.3034 25.7155 45.6889 26.2522C46.46 27.3259 47.4789 28.7876 48.4711 30.3411C49.4639 31.8954 50.4276 33.5379 51.0901 34.9736C51.4213 35.6916 51.6754 36.3541 51.8206 36.9254C51.9668 37.5005 51.998 37.9658 51.9026 38.2992Z" fill="white" stroke="#423C86" stroke-width="0.27974"/>
<path d="M44.2269 24.409C44.2269 24.409 52.6205 35.2393 51.7754 38.1938C51.6421 38.6617 50.5324 39.1686 48.8927 39.6634C49.9257 38.1852 49.9646 34.5772 42.8233 25.8547L44.2269 24.409Z" fill="#D9DCED"/>
<path d="M18.0753 38.2816L18.0753 38.2818C18.0967 38.359 18.1651 38.457 18.3048 38.5725C18.4421 38.6861 18.6347 38.8055 18.8801 38.929C19.3704 39.1759 20.0518 39.43 20.8723 39.6837L20.8724 39.6837C24.8799 40.9276 32.0685 42.1292 35.8636 42.4939L35.8932 42.4967L35.9192 42.5114C37.0539 43.1503 38.2377 43.4293 39.1401 43.5481C39.5909 43.6074 39.9702 43.6266 40.2362 43.631C40.3485 43.6328 40.4405 43.632 40.5091 43.6305L40.1923 39.457L40.1837 39.3446L40.2915 39.3117L40.2916 39.3117L40.2919 39.3116L40.293 39.3113L40.298 39.3097L40.3175 39.3037C40.3348 39.2983 40.3601 39.2902 40.3924 39.2799C40.4568 39.2591 40.5488 39.2288 40.6582 39.191C40.8774 39.1152 41.1652 39.0098 41.4424 38.8901C41.7221 38.7693 41.9814 38.6381 42.1496 38.5127C42.235 38.449 42.2843 38.3958 42.3058 38.3567C42.3218 38.3276 42.3169 38.3204 42.3129 38.3146C42.3128 38.3144 42.3126 38.3143 42.3125 38.3141C42.3128 38.3145 42.3129 38.3147 42.3128 38.3146C42.3125 38.3144 42.3064 38.3072 42.287 38.2949C42.2656 38.2815 42.2348 38.2662 42.1934 38.2498C42.1107 38.217 41.998 38.1847 41.8611 38.1541C41.5881 38.0931 41.2353 38.0423 40.8698 38.0047C40.5049 37.9671 40.1309 37.943 39.8167 37.9348C39.4976 37.9264 39.2544 37.9349 39.1419 37.9573C39.0356 37.9791 38.8515 38.0616 38.6211 38.1867C38.3959 38.3088 38.1419 38.4628 37.9022 38.6146C37.6629 38.7662 37.4395 38.9146 37.2758 39.0252C37.194 39.0805 37.1272 39.1263 37.0809 39.1582L37.0275 39.1951L37.0137 39.2048L37.0102 39.2072L37.0093 39.2078L37.0091 39.208L37.0091 39.208L36.9283 39.0927L37.009 39.208L36.9529 39.2473L36.8872 39.2273L24.9186 35.5762L24.7342 35.52L24.8439 35.3614L29.2337 29.0199L26.9229 26.0496L26.9228 26.0495L25.6892 24.4667C25.6275 24.5477 25.5412 24.6614 25.4337 24.8041C25.2012 25.113 24.8698 25.5577 24.4746 26.1008C23.6843 27.1871 22.6394 28.666 21.6208 30.2373C20.6016 31.8094 19.6111 33.4706 18.9275 34.9221C18.5857 35.648 18.3225 36.3175 18.1704 36.8948C18.0172 37.476 17.9816 37.9457 18.0753 38.2816Z" fill="white" stroke="#423C86" stroke-width="0.281535"/>
<path d="M25.8673 24.3554C25.8673 24.3554 17.3882 35.2861 18.2183 38.2653C18.3493 38.737 19.6636 39.1743 21.3104 39.6835C20.281 38.1888 19.7872 34.6921 27.0342 25.9631L25.8673 24.3554Z" fill="#D9DCED"/>
<path d="M44.7072 49.039C38.1892 50.3915 33.0318 50.0151 29.4996 49.2984C27.7204 48.9374 26.3532 48.4899 25.432 48.1334C24.9714 47.9552 24.6223 47.7996 24.389 47.689C24.2784 47.6366 24.1938 47.5942 24.1357 47.5644L26.2844 40.6503L26.2844 40.6502L26.6161 39.5793L26.623 39.5569L26.6219 39.5335L25.8818 23.945L32.1251 23.4913L37.5781 23.5099L44.3324 24.4417L41.8212 39.8246L41.8161 39.8559L41.8256 39.8861L44.2343 47.5348L44.2343 47.5349L44.7072 49.039Z" fill="#EEA832" stroke="#423C86" stroke-width="0.266684"/>
<path d="M43.1502 18.5428L43.1502 18.5426C43.2563 18.1474 43.2926 17.7504 43.2441 17.4208C43.1954 17.0896 43.065 16.8465 42.8572 16.7222L42.6294 16.5859L42.8748 16.4845C43.2211 16.3415 43.4985 16.0102 43.6795 15.5688C43.8598 15.1291 43.9377 14.5948 43.8953 14.0739C43.8528 13.5525 43.6907 13.0546 43.4021 12.6811C43.116 12.311 42.7025 12.0581 42.1389 12.0232L41.975 12.013L42.0186 11.8547C42.2756 10.9216 41.9722 9.6816 41.2869 8.84407C40.9463 8.42782 40.5173 8.11855 40.0259 7.99299C39.5367 7.86802 38.973 7.92171 38.3532 8.25292L38.2229 8.32256L38.1669 8.18579C38.0173 7.82002 37.854 7.61946 37.7047 7.51459C37.5588 7.41207 37.4162 7.39381 37.2875 7.41327C37.1549 7.4333 37.0341 7.49412 36.9435 7.55369C36.8989 7.58304 36.8632 7.61101 36.839 7.63134C36.827 7.64148 36.8179 7.64964 36.8121 7.655L36.8058 7.66083L36.8048 7.66181L36.8047 7.66191L36.8047 7.66197L36.8046 7.66198L36.8046 7.66206L36.6441 7.82145L36.5826 7.60355L36.5825 7.60352L36.5825 7.60347L36.5825 7.60344L36.5823 7.60273L36.5812 7.59903L36.5764 7.58304C36.5719 7.5687 36.5649 7.54718 36.5554 7.51953C36.5362 7.4642 36.5067 7.38451 36.4654 7.2888C36.3827 7.09696 36.254 6.84293 36.0699 6.59222C35.7019 6.09088 35.1232 5.61496 34.2514 5.65184C33.3728 5.69029 32.8306 6.17581 32.5031 6.66128C32.3389 6.90464 32.2301 7.14635 32.1624 7.32751C32.1286 7.4179 32.1052 7.49271 32.0904 7.54444C32.083 7.57029 32.0778 7.59033 32.0745 7.60362L32.0709 7.61835L32.0701 7.62169L32.07 7.62223L32.0699 7.62232L32.0699 7.62236L32.0266 7.8193L31.8626 7.70232L31.8625 7.70225L31.8625 7.70221L31.8624 7.70219L31.8623 7.70211L31.8608 7.70109L31.8524 7.69546C31.8445 7.6903 31.8322 7.68248 31.8157 7.67278C31.7827 7.65335 31.7335 7.62652 31.6705 7.59842C31.5441 7.54207 31.365 7.48172 31.1531 7.46445C30.7379 7.43062 30.173 7.55964 29.6132 8.27285C29.0413 9.00272 28.8772 9.59574 28.8504 9.99727C28.8369 10.1988 28.8578 10.3546 28.8811 10.458C28.8928 10.5098 28.905 10.5485 28.9139 10.5733C28.9184 10.5857 28.922 10.5946 28.9242 10.5999L28.9265 10.6052L28.9265 10.6052C28.9265 10.6053 28.9265 10.6053 28.9266 10.6054C28.9266 10.6054 28.9267 10.6056 28.9267 10.6056M43.1502 18.5428L28.9267 10.6056L28.9267 10.6056M43.1502 18.5428C43.0138 19.0549 42.765 19.546 42.4549 19.8699C42.1456 20.1929 41.7964 20.3322 41.4365 20.2075L41.1909 20.1224L41.2651 20.3715C41.3757 20.7432 41.1974 21.2205 40.8508 21.4963C40.681 21.6314 40.4769 21.7126 40.256 21.7099C40.036 21.7071 39.7867 21.6209 39.5259 21.3987L39.3651 21.2618L39.3106 21.4658C39.106 22.2308 38.5545 22.5823 38.0394 22.7452C37.7811 22.8269 37.5348 22.8598 37.3525 22.8722C37.2615 22.8783 37.1872 22.8793 37.136 22.8788C37.1104 22.8786 37.0907 22.8779 37.0777 22.8774L37.0632 22.8767L37.0599 22.8765L37.0594 22.8765L43.1502 18.5428ZM28.9267 10.6056L28.9268 10.6058L28.9267 10.6056ZM28.8393 10.7923L28.8064 10.6631C28.7735 10.5338 28.7734 10.5339 28.7733 10.5339L28.7731 10.5339L28.7726 10.5341L28.7708 10.5345L28.7648 10.5361L28.8393 10.7923ZM28.8393 10.7923L28.8393 10.7923L28.8393 10.7923L28.8385 10.7925L28.8344 10.7936L28.8168 10.7985C28.8011 10.803 28.7774 10.8101 28.7469 10.82C28.6861 10.8397 28.5984 10.8706 28.4932 10.9147C28.2823 11.0029 28.0034 11.143 27.729 11.3502C27.1826 11.7629 26.6578 12.4376 26.7162 13.5097C26.7767 14.6186 27.0507 15.3363 27.3036 15.7731C27.4302 15.9918 27.5521 16.1411 27.6405 16.2346C27.6848 16.2813 27.7207 16.3141 27.7447 16.3347C27.7567 16.3449 27.7658 16.3521 27.7714 16.3565L27.7772 16.3609L27.7776 16.3611M28.8393 10.7923L27.7776 16.3611M27.7776 16.3611L27.7777 16.3612L27.7776 16.3611ZM29.7872 19.8146L29.7872 19.8146L29.7854 19.8143L29.777 19.8132C29.7694 19.8122 29.7575 19.8104 29.7419 19.8078C29.7107 19.8027 29.6645 19.7942 29.6062 19.781C29.4896 19.7547 29.3253 19.7098 29.1372 19.6362C28.7603 19.4886 28.2929 19.2275 27.9185 18.7728L27.9181 18.7724C27.8192 18.6533 27.7464 18.524 27.6927 18.3908L27.6926 18.3907C27.5229 17.9716 27.5513 17.5093 27.6277 17.1422C27.6657 16.9601 27.7147 16.8051 27.7542 16.6959C27.7739 16.6413 27.7911 16.5984 27.8033 16.5694C27.8093 16.555 27.8141 16.544 27.8173 16.5368L27.8209 16.529L27.8217 16.5273L27.8217 16.5271L27.8218 16.5271L27.8218 16.527L29.7872 19.8146Z" fill="#393761" stroke="#423C86" stroke-width="0.266684"/>
<path d="M34.847 28.5144L34.7918 28.5142L34.79 28.516C34.2162 28.4964 33.7719 28.198 33.4222 27.7389C33.059 27.2621 32.8052 26.6198 32.6292 25.9662C32.4537 25.3143 32.3584 24.6611 32.307 24.1698C32.2813 23.9244 32.2666 23.7201 32.2584 23.5773C32.2543 23.506 32.2518 23.4501 32.2503 23.4121L32.2489 23.372L32.545 22.1503L32.545 22.1502L32.8395 20.9283L36.9461 20.9423L37.1892 22.1226L37.1893 22.1227L37.4511 23.3858L37.4495 23.428C37.448 23.4659 37.4454 23.5218 37.4412 23.5931C37.4328 23.7358 37.4179 23.94 37.3919 24.1852C37.3398 24.6762 37.2435 25.3287 37.067 25.9793C36.8901 26.6317 36.6352 27.2721 36.2712 27.7463C35.9098 28.2171 35.4478 28.5164 34.847 28.5144Z" fill="white" stroke="#423C86" stroke-width="0.266684"/>
<path d="M34.6835 23.2334C34.228 23.2318 33.851 23.0655 33.5026 22.8291C33.2706 22.6716 33.0615 22.4913 32.8499 22.3088C32.7568 22.2286 32.6632 22.1479 32.5671 22.0686L32.8419 20.9282L36.9485 20.9423L37.1754 22.0439C36.8611 22.3018 36.4774 22.5908 36.0607 22.8197C35.6152 23.0645 35.1423 23.2349 34.6835 23.2334Z" fill="#D9DCED" stroke="#423C86" stroke-width="0.266684"/>
<path d="M29.7312 14.6796L29.737 14.8129L29.7369 14.8129L29.7367 14.8129L29.7362 14.8129L29.7344 14.813L29.7278 14.8132L29.7034 14.8138C29.6824 14.8143 29.6518 14.8147 29.613 14.8146C29.5355 14.8143 29.4248 14.8119 29.291 14.8032C29.0618 14.7884 28.7628 14.7553 28.4444 14.6831C28.4399 15.0241 28.5071 15.2793 28.6078 15.471C28.7235 15.6911 28.8881 15.8366 29.0585 15.9337C29.2299 16.0314 29.4068 16.0797 29.5422 16.1033C29.6096 16.115 29.6657 16.1205 29.7045 16.123C29.7238 16.1243 29.7388 16.1248 29.7485 16.1251L29.759 16.1252L29.7611 16.1252L29.7612 16.1252L29.7612 16.1252L29.7613 16.1252L29.7614 16.1252L29.8757 16.1235L29.8947 16.2364L29.8947 16.2365L29.8947 16.2366L29.8948 16.2372L29.8953 16.2401L29.8974 16.2522C29.8994 16.2631 29.9023 16.2794 29.9064 16.3008C29.9146 16.3436 29.9271 16.4067 29.9446 16.4874C29.9795 16.6487 30.034 16.8798 30.1122 17.1574C30.2686 17.713 30.519 18.4525 30.8948 19.1911C31.6497 20.6745 32.8883 22.115 34.8555 22.1217C36.8214 22.1284 38.034 20.6979 38.7629 19.2203C39.1259 18.4845 39.3634 17.7469 39.5103 17.1924C39.5836 16.9154 39.6342 16.6847 39.6663 16.5237C39.6824 16.4431 39.6939 16.3801 39.7013 16.3373C39.705 16.316 39.7077 16.2997 39.7094 16.2889L39.7105 16.2824L39.7109 16.1532L39.8475 16.157C40.14 16.1653 40.3489 16.0811 40.5021 15.9566C40.6579 15.8301 40.7646 15.6547 40.837 15.4696C40.9092 15.2847 40.9446 15.0967 40.9617 14.9535C40.9656 14.9214 40.9684 14.8917 40.9706 14.8651C40.8778 14.8723 40.747 14.8806 40.5893 14.886C40.2662 14.8971 39.8281 14.8957 39.3705 14.8452L39.3457 14.8425L39.3236 14.8309C38.7088 14.5111 38.2524 13.9305 37.9527 13.4425C37.8053 13.2025 37.6935 12.9813 37.6177 12.8175C37.5681 12.906 37.5027 13.0074 37.4185 13.11C37.1775 13.4038 36.781 13.7088 36.1718 13.7414C35.5593 13.7741 35.1512 13.4983 34.9007 13.2169C34.7763 13.0772 34.6903 12.9361 34.6353 12.8299C34.6283 12.8164 34.6218 12.8035 34.6158 12.7912C34.611 12.7937 34.6061 12.7962 34.6011 12.7987C34.5095 12.8454 34.3802 12.9053 34.2295 12.958C33.9336 13.0613 33.5299 13.1456 33.1653 13.0172L33.1648 13.017C32.7828 12.8808 32.6203 12.5466 32.5521 12.2743C32.5236 12.1607 32.5101 12.0532 32.504 11.9663C32.4904 11.9717 32.476 11.9772 32.4611 11.9829C32.3175 12.0371 32.1157 12.1023 31.8828 12.1455C31.4948 12.2175 31.0046 12.2312 30.5563 12.0145C30.6209 12.6752 30.4675 13.3164 30.2901 13.8068C30.1883 14.0882 30.0773 14.3232 29.9917 14.4881C29.9489 14.5706 29.9123 14.6357 29.8862 14.6805C29.8732 14.7029 29.8628 14.7203 29.8555 14.7322L29.847 14.7459L29.8447 14.7496L29.844 14.7507L29.8438 14.751L29.8438 14.7512L29.7312 14.6796ZM29.7312 14.6796L29.737 14.8129L29.8064 14.8098L29.8437 14.7512L29.7312 14.6796Z" fill="white" stroke="#423C86" stroke-width="0.266684"/>
<g style="mix-blend-mode:multiply" opacity="0.2">
<path d="M29.1573 34.2016C28.3604 33.8698 27.7064 33.1565 27.4327 32.2637C27.6473 32.519 27.9581 32.8336 28.3689 33.1162C29.1685 33.666 30.3418 34.0896 31.9058 33.7283C31.0045 34.4806 29.9972 34.5512 29.1573 34.2016Z" fill="#D22C55"/>
<path d="M29.1573 34.2016C28.3604 33.8698 27.7064 33.1565 27.4327 32.2637C27.6473 32.519 27.9581 32.8336 28.3689 33.1162C29.1685 33.666 30.3418 34.0896 31.9058 33.7283C31.0045 34.4806 29.9972 34.5512 29.1573 34.2016Z" stroke="#423C86" stroke-width="0.266684"/>
</g>
<g style="mix-blend-mode:multiply" opacity="0.2">
<path d="M42.238 32.3145C41.9581 33.2053 41.2993 33.9141 40.5001 34.2404C39.6578 34.5844 38.6511 34.5068 37.7549 33.7484C39.3164 34.1204 40.4925 33.7048 41.2959 33.1605C41.7087 32.8808 42.0215 32.5682 42.238 32.3145Z" fill="#D22C55"/>
<path d="M42.238 32.3145C41.9581 33.2053 41.2993 33.9141 40.5001 34.2404C39.6578 34.5844 38.6511 34.5068 37.7549 33.7484C39.3164 34.1204 40.4925 33.7048 41.2959 33.1605C41.7087 32.8808 42.0215 32.5682 42.238 32.3145Z" stroke="#423C86" stroke-width="0.266684"/>
</g>
<path d="M34.2654 17.4499L34.2689 17.4068L34.5387 14.1677C34.5387 14.1676 34.5387 14.1676 34.5387 14.1676L34.5387 14.1675L34.5786 14.1708C34.5842 14.0988 34.6483 14.0457 34.723 14.0486L34.2654 17.4499ZM34.2654 17.4499L34.3087 17.4501L35.1754 17.4531M34.2654 17.4499L35.1754 17.4531M35.1754 17.4531L35.1781 17.4531L35.1781 17.453M35.1754 17.4531L35.1781 17.453M35.1781 17.453C35.2736 17.452 35.349 17.3762 35.3493 17.2803C35.3497 17.1835 35.2733 17.1067 35.1766 17.1064L34.6412 17.1045L35.1781 17.453Z" fill="#423C86" stroke="#423C86" stroke-width="0.0800053"/>
<path d="M32.4243 15.6222C32.424 15.719 32.5003 15.7958 32.5971 15.7961C32.6938 15.7965 32.7707 15.7202 32.771 15.6234L32.7729 15.066C32.7732 14.9693 32.6969 14.8924 32.6002 14.8921C32.5034 14.8918 32.4265 14.9681 32.4262 15.0648L32.4243 15.6222Z" fill="#423C86" stroke="#423C86" stroke-width="0.0800053"/>
<path d="M36.8057 15.6373C36.8054 15.7341 36.8817 15.811 36.9785 15.8113C37.0752 15.8116 37.1521 15.7353 37.1524 15.6385L37.1543 15.0812C37.1546 14.9844 37.0783 14.9076 36.9816 14.9072C36.8848 14.9069 36.808 14.9832 36.8076 15.08L36.8057 15.6373Z" fill="#423C86" stroke="#423C86" stroke-width="0.0800053"/>
<path d="M33.0981 14.3498L33.1214 14.3173C32.8829 14.1467 32.6261 14.1568 32.4052 14.2376C32.1855 14.3179 31.9979 14.469 31.8889 14.5881L31.8889 14.5882C31.8228 14.6607 31.8299 14.7681 31.8982 14.8334L31.8981 14.8334L31.8989 14.8341C31.9334 14.8653 31.9751 14.8793 32.0162 14.8795C32.0637 14.8796 32.1096 14.8625 32.1447 14.8241L32.1152 14.7971M33.0981 14.3498L33.1211 14.317C33.201 14.3731 33.2173 14.4809 33.1622 14.5595L33.1618 14.5602L33.1617 14.5602C33.1064 14.6357 32.9993 14.6565 32.9197 14.6007L32.9195 14.6006C32.7538 14.4829 32.5672 14.5301 32.4118 14.617C32.2642 14.6995 32.1565 14.8118 32.1444 14.8244C32.1439 14.825 32.1435 14.8254 32.1434 14.8255L32.1152 14.7971M33.0981 14.3498C32.6485 14.0282 32.1299 14.3838 31.9184 14.6151C31.8676 14.6709 31.8726 14.7536 31.9258 14.8045C31.9524 14.8286 31.9844 14.8394 32.0164 14.8395C32.0537 14.8396 32.0884 14.8264 32.1152 14.7971M33.0981 14.3498C33.1593 14.3927 33.1724 14.4754 33.1295 14.5366C33.0866 14.5951 33.0039 14.6108 32.9427 14.5679C32.5804 14.3107 32.1389 14.7723 32.1161 14.7962C32.1156 14.7967 32.1153 14.797 32.1152 14.7971" fill="#423C86" stroke="#423C86" stroke-width="0.0800053"/>
<path d="M36.4048 14.361L36.3821 14.3281C36.3017 14.3836 36.2847 14.4913 36.3392 14.5703L36.3392 14.5703L36.3397 14.571C36.3945 14.6469 36.5015 14.6684 36.5815 14.6132L36.5815 14.6132L36.5817 14.613C36.7481 14.4965 36.9344 14.5449 37.0893 14.6329C37.2363 14.7164 37.3432 14.8295 37.3552 14.8422C37.3558 14.8428 37.3561 14.8431 37.3563 14.8433C37.3894 14.8766 37.4339 14.8979 37.483 14.8981C37.5242 14.8982 37.566 14.8845 37.6006 14.8536L37.6006 14.8536L37.6014 14.8528C37.6707 14.7875 37.6747 14.6774 37.6124 14.6078L37.6123 14.6076C37.5042 14.4877 37.3175 14.336 37.0984 14.2545C36.8781 14.1726 36.6215 14.1608 36.3819 14.3282L36.4048 14.361ZM36.4048 14.361C36.8566 14.0452 37.3727 14.4017 37.5826 14.6344C37.6304 14.6879 37.6275 14.7732 37.574 14.8237C37.5472 14.8476 37.5152 14.8582 37.4832 14.8581C37.4458 14.858 37.4112 14.8418 37.3847 14.8151C37.3845 14.815 37.3843 14.8147 37.3838 14.8142C37.3611 14.7901 36.9227 14.3255 36.5587 14.5802C36.4972 14.6227 36.4146 14.6064 36.3722 14.5476C36.3297 14.4861 36.3433 14.4035 36.4048 14.361Z" fill="#423C86" stroke="#423C86" stroke-width="0.0800053"/>
<path d="M34.7377 18.4223C34.7428 18.4943 34.8012 18.5479 34.8706 18.5481L34.8786 18.5481C34.8799 18.548 34.8819 18.5478 34.8845 18.5476C34.9941 18.5384 36.2341 18.4348 36.4765 17.6228L34.7377 18.4223ZM34.7377 18.4223C34.7326 18.3476 34.7888 18.2865 34.8608 18.2814L34.7377 18.4223ZM34.6978 18.425L34.6978 18.4251C34.7043 18.518 34.7801 18.5878 34.8705 18.5881L34.8705 18.5881L34.8705 18.5881L34.8705 18.5881L34.8705 18.5881L34.8705 18.5881L34.8705 18.5881L34.8706 18.5881L34.8706 18.5881L34.8706 18.5881L34.8706 18.5881L34.8706 18.5881L34.8706 18.5881L34.8707 18.5881L34.8707 18.5881L34.8707 18.5881L34.8707 18.5881L34.8707 18.5881L34.8707 18.5881L34.8707 18.5881L34.8708 18.5881L34.8708 18.5881L34.8708 18.5881L34.8708 18.5881L34.8708 18.5881L34.8708 18.5881L34.8709 18.5881L34.8709 18.5881L34.8709 18.5881L34.8709 18.5881L34.8709 18.5881L34.8709 18.5881L34.871 18.5881L34.871 18.5881L34.871 18.5881L34.871 18.5881L34.871 18.5881L34.871 18.5881L34.871 18.5881L34.8711 18.5881L34.8711 18.5881L34.8711 18.5881L34.8711 18.5881L34.8711 18.5881L34.8711 18.5881L34.8712 18.5881L34.8712 18.5881L34.8712 18.5881L34.8712 18.5881L34.8712 18.5881L34.8712 18.5881L34.8712 18.5881L34.8713 18.5881L34.8713 18.5881L34.8713 18.5881L34.8713 18.5881L34.8713 18.5881L34.8713 18.5881L34.8714 18.5881L34.8714 18.5881L34.8714 18.5881L34.8714 18.5881L34.8714 18.5881L34.8714 18.5881L34.8715 18.5881L34.8715 18.5881L34.8715 18.5881L34.8715 18.5881L34.8715 18.5881L34.8715 18.5881L34.8715 18.5881L34.8716 18.5881L34.8716 18.5881L34.8716 18.5881L34.8716 18.5881L34.8716 18.5881L34.8716 18.5881L34.8717 18.5881L34.8717 18.5881L34.8717 18.5881L34.8717 18.5881L34.8717 18.5881L34.8717 18.5881L34.8717 18.5881L34.8718 18.5881L34.8718 18.5881L34.8718 18.5881L34.8718 18.5881L34.8718 18.5881L34.8718 18.5881L34.8719 18.5881L34.8719 18.5881L34.8719 18.5881L34.8719 18.5881L34.8719 18.5881L34.8719 18.5881L34.872 18.5881L34.872 18.5881L34.872 18.5881L34.872 18.5881L34.872 18.5881L34.872 18.5881L34.872 18.5881L34.8721 18.5881L34.8721 18.5881L34.8721 18.5881L34.8721 18.5881L34.8721 18.5881L34.8721 18.5881L34.8722 18.5881L34.8722 18.5881L34.8722 18.5881L34.8722 18.5881L34.8722 18.5881L34.8722 18.5881L34.8722 18.5881L34.8723 18.5881L34.8723 18.5881L34.8723 18.5881L34.8723 18.5881L34.8723 18.5881L34.8723 18.5881L34.8724 18.5881L34.8724 18.5881L34.8724 18.5881L34.8724 18.5881L34.8724 18.5881L34.8724 18.5881L34.8725 18.5881L34.8725 18.5881L34.8725 18.5881L34.8725 18.5881L34.8725 18.5881L34.8725 18.5881L34.8725 18.5881L34.8726 18.5881L34.8726 18.5881L34.8726 18.5881L34.8726 18.5881L34.8726 18.5881L34.8726 18.5881L34.8727 18.5881L34.8727 18.5881L34.8727 18.5881L34.8727 18.5881L34.8727 18.5881L34.8727 18.5881L34.8727 18.5881L34.8728 18.5881L34.8728 18.5881L34.8728 18.5881L34.8728 18.5881L34.8728 18.5881L34.8728 18.5881L34.8729 18.5881L34.8729 18.5881L34.8729 18.5881L34.8729 18.5881L34.8729 18.5881L34.8729 18.5881L34.873 18.5881L34.873 18.5881L34.873 18.5881L34.873 18.5881L34.873 18.5881L34.873 18.5881L34.873 18.5881L34.8731 18.5881L34.8731 18.5881L34.8731 18.5881L34.8731 18.5881L34.8731 18.5881L34.8731 18.5881L34.8732 18.5881L34.8732 18.5881L34.8732 18.5881L34.8732 18.5881L34.8732 18.5881L34.8732 18.5881L34.8732 18.5881L34.8733 18.5881L34.8733 18.5881L34.8733 18.5881L34.8733 18.5881L34.8733 18.5881L34.8733 18.5881L34.8734 18.5881L34.8734 18.5881L34.8734 18.5881L34.8734 18.5881L34.8734 18.5881L34.8734 18.5881L34.8735 18.5881L34.8735 18.5881L34.8735 18.5881L34.8735 18.5881L34.8735 18.5881L34.8735 18.5881L34.8735 18.5881L34.8736 18.5881L34.8736 18.5881L34.8736 18.5881L34.8736 18.5881L34.8736 18.5881L34.8736 18.5881L34.8737 18.5881L34.8737 18.5881L34.8737 18.5881L34.8737 18.5881L34.8737 18.5881L34.8737 18.5881L34.8737 18.5881L34.8738 18.5881L34.8738 18.5881L34.8738 18.5881L34.8738 18.5881L34.8738 18.5881L34.8738 18.5881L34.8739 18.5881L34.8739 18.5881L34.8739 18.5881L34.8739 18.5881L34.8739 18.5881L34.8739 18.5881L34.874 18.5881L34.874 18.5881L34.874 18.5881L34.874 18.5881L34.874 18.5881L34.874 18.5881L34.874 18.5881L34.8741 18.5881L34.8741 18.5881L34.8741 18.5881L34.8741 18.5881L34.8741 18.5881L34.8741 18.5881L34.8742 18.5881L34.8742 18.5881L34.8742 18.5881L34.8742 18.5881L34.8742 18.5881L34.8742 18.5881L34.8742 18.5881L34.8743 18.5881L34.8743 18.5881L34.8743 18.5881L34.8743 18.5881L34.8743 18.5881L34.8743 18.5881L34.8744 18.5881L34.8744 18.5881L34.8744 18.5881L34.8744 18.5881L34.8744 18.5881L34.8744 18.5881L34.8745 18.5881L34.8745 18.5881L34.8745 18.5881L34.8745 18.5881L34.8745 18.5881L34.8745 18.5881L34.8745 18.5881L34.8746 18.5881L34.8746 18.5881L34.8746 18.5881L34.8746 18.5881L34.8746 18.5881L34.8746 18.5881L34.8747 18.5881L34.8747 18.5881L34.8747 18.5881L34.8747 18.5881L34.8747 18.5881L34.8747 18.5881L34.8747 18.5881L34.8748 18.5881L34.8748 18.5881L34.8748 18.5881L34.8748 18.5881L34.8748 18.5881L34.8748 18.5881L34.8749 18.5881L34.8749 18.5881L34.8749 18.5881L34.8749 18.5881L34.8749 18.5881L34.8749 18.5881L34.875 18.5881L34.875 18.5881L34.875 18.5881L34.875 18.5881L34.875 18.5881L34.875 18.5881L34.875 18.5881L34.8751 18.5881L34.8751 18.5881L34.8751 18.5881L34.8751 18.5881L34.8751 18.5881L34.8751 18.5881L34.8752 18.5881L34.8752 18.5881L34.8752 18.5881L34.8752 18.5881L34.8752 18.5881L34.8752 18.5881L34.8752 18.5881L34.8753 18.5881L34.8753 18.5881L34.8753 18.5881L34.8753 18.5881L34.8753 18.5881L34.8753 18.5881L34.8754 18.5881L34.8754 18.5881L34.8754 18.5881L34.8754 18.5881L34.8754 18.5881L34.8754 18.5881L34.8755 18.5881L34.8755 18.5881L34.8755 18.5881L34.8755 18.5881L34.8755 18.5881L34.8755 18.5881L34.8755 18.5881L34.8756 18.5881L34.8756 18.5881L34.8756 18.5881L34.8756 18.5881L34.8756 18.5881L34.8756 18.5881L34.8757 18.5881L34.8757 18.5881L34.8757 18.5881L34.8757 18.5881L34.8757 18.5881L34.8757 18.5881L34.8757 18.5881L34.8758 18.5881L34.8758 18.5881L34.8758 18.5881L34.8758 18.5881L34.8758 18.5881L34.8758 18.5881L34.8759 18.5881L34.8759 18.5881L34.8759 18.5881L34.8759 18.5881L34.8759 18.5881L34.8759 18.5881L34.876 18.5881L34.876 18.5881L34.876 18.5881L34.876 18.5881L34.876 18.5881L34.876 18.5881L34.876 18.5881L34.8761 18.5881L34.8761 18.5881L34.8761 18.5881L34.8761 18.5881L34.8761 18.5881L34.8761 18.5881L34.8762 18.5881L34.8762 18.5881L34.8762 18.5881L34.8762 18.5881L34.8762 18.5881L34.8762 18.5881L34.8762 18.5881L34.8763 18.5881L34.8763 18.5881L34.8763 18.5881L34.8763 18.5881L34.8763 18.5881L34.8763 18.5881L34.8764 18.5881L34.8764 18.5881L34.8764 18.5881L34.8764 18.5881L34.8764 18.5881L34.8764 18.5881L34.8765 18.5881L34.8765 18.5881L34.8765 18.5881L34.8765 18.5881L34.8765 18.5881L34.8765 18.5881L34.8765 18.5881L34.8766 18.5881L34.8766 18.5881L34.8766 18.5881L34.8766 18.5881L34.8766 18.5881L34.8766 18.5881L34.8767 18.5881L34.8767 18.5881L34.8767 18.5881L34.8767 18.5881L34.8767 18.5881L34.8767 18.5881L34.8767 18.5881L34.8768 18.5881L34.8768 18.5881L34.8768 18.5881L34.8768 18.5881L34.8768 18.5881L34.8768 18.5881L34.8769 18.5881L34.8769 18.5881L34.8769 18.5881L34.8769 18.5881L34.8769 18.5881L34.8769 18.5881L34.877 18.5881L34.877 18.5881L34.877 18.5881L34.877 18.5881L34.877 18.5881L34.877 18.5881L34.877 18.5881L34.8771 18.5881L34.8771 18.5881L34.8771 18.5881L34.8771 18.5881L34.8771 18.5881L34.8771 18.5881L34.8772 18.5881L34.8772 18.5881L34.8772 18.5881L34.8772 18.5881L34.8772 18.5881L34.8772 18.5881L34.8772 18.5881L34.8773 18.5881L34.8773 18.5881L34.8773 18.5881L34.8773 18.5881L34.8773 18.5881L34.8773 18.5881L34.8774 18.5881L34.8774 18.5881L34.8774 18.5881L34.8774 18.5881L34.8774 18.5881L34.8774 18.5881L34.8775 18.5881L34.8775 18.5881L34.8775 18.5881L34.8775 18.5881L34.8775 18.5881L34.8775 18.5881L34.8775 18.5881L34.8776 18.5881L34.8776 18.5881L34.8776 18.5881L34.8776 18.5881L34.8776 18.5881L34.8776 18.5881L34.8777 18.5881L34.8777 18.5881L34.8777 18.5881L34.8777 18.5881L34.8777 18.5881L34.8777 18.5881L34.8777 18.5881L34.8778 18.5881L34.8778 18.5881L34.8778 18.5881L34.8778 18.5881L34.8778 18.5881L34.8778 18.5881L34.8779 18.5881L34.8779 18.5881L34.8779 18.5881L34.8779 18.5881L34.8779 18.5881L34.8779 18.5881L34.878 18.5881L34.878 18.5881L34.878 18.5881L34.878 18.5881L34.878 18.5881L34.878 18.5881L34.878 18.5881L34.8781 18.5881L34.8781 18.5881L34.8781 18.5881L34.8781 18.5881L34.8781 18.5881L34.8781 18.5881L34.8782 18.5881L34.8782 18.5881L34.8782 18.5881L34.8782 18.5881L34.8782 18.5881L34.8782 18.5881L34.8782 18.5881L34.8783 18.5881L34.8783 18.5881L34.8783 18.5881L34.8783 18.5881L34.8783 18.5881L34.8783 18.5881L34.8784 18.5881L34.8784 18.5881L34.8784 18.5881L34.8784 18.5881L34.8784 18.5881L34.8784 18.5881L34.8785 18.5881L34.8784 18.5883L34.8822 18.588C34.8835 18.5878 34.8855 18.5877 34.8881 18.5874C34.942 18.5829 35.2691 18.5556 35.6187 18.433C35.9836 18.305 36.385 18.069 36.5148 17.6345C36.5432 17.5428 36.4871 17.4467 36.3983 17.419C36.3065 17.3904 36.2103 17.4465 36.1826 17.5354L36.1825 17.5357C36.0902 17.8403 35.771 18.0183 35.4586 18.1201C35.3041 18.1704 35.155 18.2008 35.0438 18.2186C34.9402 18.2352 34.8715 18.2405 34.8621 18.2413C34.8614 18.2413 34.861 18.2414 34.861 18.2414L34.861 18.2413L34.858 18.2415C34.7647 18.2481 34.6911 18.3276 34.6978 18.425Z" fill="#423C86" stroke="#423C86" stroke-width="0.0800053"/>
</g>
<g filter="url(#filter1_d_911_46268)">
<path d="M28.2578 49.944L28.3687 49.9204L28.3582 49.8075L26.5582 30.562L26.5446 30.4175L26.4032 30.4495L23.406 31.1275L23.4058 31.1275L23.2274 31.1676L23.2273 31.1677L20.9416 31.6849L20.8192 31.7126L20.845 31.8354L24.3238 48.3899L24.3271 48.4057L24.3342 48.4201L24.6226 49.0045L24.6228 49.0048L25.339 50.4675L25.3827 50.5568L25.48 50.5361L28.2578 49.944Z" fill="white" stroke="black" stroke-width="0.254892"/>
<path d="M26.2583 49.8329L24.7371 48.9483L24.4485 48.3636L20.9698 31.8091L22.712 31.4149L23.2542 34.6106L26.2583 49.8329Z" fill="#D9DCED"/>
<path d="M-2.27881 29.4433L-2.38934 29.3798L-2.38947 29.3801L-2.38999 29.381L-2.39205 29.3845L-2.40016 29.3987L-2.43181 29.4539L-2.55225 29.6647C-2.65621 29.847 -2.80521 30.1092 -2.98539 30.4287C-3.34574 31.0676 -3.83095 31.936 -4.33026 32.8534C-4.82947 33.7707 -5.34321 34.7379 -5.76045 35.5742C-6.17542 36.4059 -6.50046 37.119 -6.61671 37.5239C-6.6218 37.5408 -6.62703 37.5608 -6.63152 37.5781C-6.63392 37.5873 -6.63612 37.5957 -6.63797 37.6024L-6.63801 37.6026C-7.21882 39.7133 -6.46302 41.2073 -5.56326 42.167C-5.11504 42.6451 -4.6315 42.9908 -4.26061 43.2169C-4.07496 43.3301 -3.91698 43.4136 -3.80494 43.469C-3.74891 43.4967 -3.70433 43.5175 -3.67346 43.5314C-3.65803 43.5383 -3.64603 43.5436 -3.63773 43.5471L-3.62811 43.5513L-3.62545 43.5524L-3.62468 43.5527L-3.62443 43.5528C-3.62434 43.5528 -3.62427 43.5529 -3.57564 43.4351L-3.62427 43.5529L-3.52199 43.5951L-3.46583 43.4997L-2.59671 42.0243L-2.5967 42.0243L-1.57887 40.2971L-1.53922 40.2298L-1.58117 40.1639L-2.16227 39.2513L-1.42026 38.1636L-1.41765 38.1636L-1.37956 38.1077L2.95757 31.74L3.04432 31.6126L2.90294 31.5513L-2.22811 29.3264L-2.33255 29.2811L-2.38929 29.3798L-2.27881 29.4433Z" fill="white" stroke="black" stroke-width="0.254892"/>
<mask id="path-52-outside-3_911_46268" maskUnits="userSpaceOnUse" x="5.93162" y="4.41944" width="14.0444" height="13.0478" fill="black">
<rect fill="white" x="5.93162" y="4.41944" width="14.0444" height="13.0478"/>
<path d="M8.98158 16.923C8.98158 16.923 7.31422 17.0244 7.00109 12.4403C6.64419 7.23927 8.3974 8.11701 8.3974 8.11701C8.3974 8.11701 8.28366 5.60082 11.5187 5.46659C14.7538 5.32982 19.4217 5.82753 19.4217 5.82753C19.4217 5.82753 19.4141 8.04508 18.7197 9.12855C19.0776 10.3201 19.1276 15.8184 16.6259 16.9109"/>
</mask>
<path d="M8.98158 16.923C8.98158 16.923 7.31422 17.0244 7.00109 12.4403C6.64419 7.23927 8.3974 8.11701 8.3974 8.11701C8.3974 8.11701 8.28366 5.60082 11.5187 5.46659C14.7538 5.32982 19.4217 5.82753 19.4217 5.82753C19.4217 5.82753 19.4141 8.04508 18.7197 9.12855C19.0776 10.3201 19.1276 15.8184 16.6259 16.9109" fill="#393761"/>
<path d="M7.00109 12.4403L7.25539 12.423L7.25538 12.4229L7.00109 12.4403ZM8.3974 8.11701L8.28329 8.34493L8.67165 8.53936L8.65203 8.1055L8.3974 8.11701ZM11.5187 5.46659L11.5293 5.72127L11.5295 5.72126L11.5187 5.46659ZM19.4217 5.82753L19.6766 5.82841L19.6774 5.59846L19.4488 5.57408L19.4217 5.82753ZM18.7197 9.12855L18.5051 8.99101L18.4419 9.08965L18.4756 9.20187L18.7197 9.12855ZM8.98158 16.923C8.96611 16.6686 8.96645 16.6686 8.96678 16.6686C8.96688 16.6686 8.9672 16.6685 8.96741 16.6685C8.96781 16.6685 8.9682 16.6685 8.96856 16.6685C8.96929 16.6684 8.96992 16.6684 8.97046 16.6684C8.97153 16.6683 8.97225 16.6683 8.9726 16.6683C8.97332 16.6683 8.97262 16.6683 8.97059 16.6683C8.96652 16.6682 8.95715 16.6677 8.94312 16.6658C8.91516 16.6621 8.86837 16.6527 8.80782 16.6294C8.68846 16.5834 8.50574 16.4791 8.30464 16.2376C7.89824 15.7495 7.41036 14.6916 7.25539 12.423L6.74679 12.4577C6.90496 14.7731 7.40731 15.9566 7.91287 16.5638C8.16776 16.8699 8.42145 17.0268 8.6245 17.1051C8.72515 17.1439 8.81107 17.1625 8.87552 17.1711C8.9077 17.1754 8.93445 17.1772 8.95496 17.1778C8.96522 17.1781 8.97392 17.1782 8.98096 17.178C8.98448 17.178 8.98759 17.1779 8.99028 17.1778C8.99162 17.1777 8.99285 17.1777 8.99398 17.1776C8.99455 17.1776 8.99508 17.1776 8.99559 17.1775C8.99585 17.1775 8.99621 17.1775 8.99634 17.1775C8.99669 17.1775 8.99704 17.1775 8.98158 16.923ZM7.25538 12.4229C7.16696 11.1343 7.2104 10.2363 7.31973 9.61477C7.42947 8.99086 7.60198 8.66605 7.75354 8.50024C7.89709 8.34321 8.0336 8.31541 8.1274 8.31601C8.1782 8.31634 8.22139 8.32535 8.25109 8.33406C8.26573 8.33835 8.27639 8.34236 8.28222 8.34471C8.28511 8.34588 8.28672 8.34661 8.28696 8.34672C8.28707 8.34677 8.28683 8.34666 8.28623 8.34637C8.28593 8.34623 8.28553 8.34604 8.28504 8.3458C8.2848 8.34568 8.28453 8.34555 8.28424 8.3454C8.28409 8.34533 8.28386 8.34521 8.28378 8.34518C8.28354 8.34505 8.28329 8.34493 8.3974 8.11701C8.51151 7.88908 8.51125 7.88895 8.51098 7.88882C8.51088 7.88877 8.5106 7.88863 8.5104 7.88853C8.51 7.88833 8.50958 7.88812 8.50912 7.8879C8.50821 7.88745 8.50718 7.88695 8.50603 7.88641C8.50375 7.88532 8.501 7.88403 8.49781 7.88258C8.49143 7.87968 8.48324 7.87612 8.47338 7.87213C8.4537 7.86416 8.42704 7.85439 8.39444 7.84484C8.32965 7.82586 8.23866 7.80693 8.13068 7.80624C7.9069 7.8048 7.62742 7.88264 7.37727 8.1563C7.13514 8.42119 6.93626 8.85214 6.81766 9.52646C6.69864 10.2031 6.65677 11.1458 6.7468 12.4578L7.25538 12.4229ZM8.3974 8.11701C8.65203 8.1055 8.65204 8.10565 8.65205 8.10579C8.65205 8.10582 8.65205 8.10595 8.65206 8.10602C8.65206 8.10616 8.65207 8.10626 8.65207 8.10633C8.65207 8.10645 8.65207 8.10643 8.65207 8.10627C8.65206 8.10594 8.65203 8.10503 8.65199 8.10355C8.65192 8.10061 8.65182 8.09541 8.6518 8.08812C8.65177 8.07352 8.65205 8.05058 8.65345 8.02045C8.65625 7.96011 8.66352 7.87153 8.68156 7.76388C8.71777 7.54782 8.79648 7.2602 8.9652 6.97037C9.29321 6.40689 9.99002 5.78513 11.5293 5.72127L11.5082 5.21192C9.81236 5.28228 8.94851 5.98573 8.52463 6.7139C8.31739 7.0699 8.22235 7.41971 8.17879 7.67962C8.15695 7.80997 8.14783 7.91901 8.14421 7.9968C8.14241 8.03574 8.14197 8.06699 8.14202 8.08931C8.14205 8.10048 8.1422 8.10943 8.14236 8.11601C8.14244 8.1193 8.14252 8.122 8.14259 8.12409C8.14263 8.12514 8.14266 8.12603 8.14269 8.12677C8.14271 8.12714 8.14272 8.12747 8.14274 8.12776C8.14274 8.12791 8.14275 8.12809 8.14275 8.12817C8.14276 8.12835 8.14277 8.12852 8.3974 8.11701ZM11.5295 5.72126C13.1326 5.65348 15.097 5.7429 16.666 5.85007C17.4494 5.90358 18.132 5.96135 18.6187 6.00574C18.862 6.02793 19.0563 6.04677 19.1896 6.06005C19.2562 6.06669 19.3077 6.07194 19.3423 6.07552C19.3597 6.07731 19.3728 6.07869 19.3816 6.07961C19.386 6.08007 19.3893 6.08042 19.3915 6.08065C19.3926 6.08077 19.3934 6.08085 19.394 6.08091C19.3942 6.08094 19.3944 6.08096 19.3945 6.08097C19.3946 6.08098 19.3947 6.08098 19.3947 6.08099C19.3947 6.08099 19.3947 6.08099 19.4217 5.82753C19.4488 5.57408 19.4487 5.57407 19.4487 5.57407C19.4486 5.57407 19.4486 5.57406 19.4485 5.57405C19.4483 5.57403 19.4481 5.57401 19.4478 5.57398C19.4472 5.57391 19.4463 5.57382 19.4452 5.5737C19.4428 5.57345 19.4394 5.57309 19.4349 5.57261C19.4258 5.57166 19.4123 5.57025 19.3947 5.56843C19.3594 5.56479 19.3074 5.55948 19.2401 5.55278C19.1055 5.53937 18.9098 5.5204 18.665 5.49806C18.1753 5.45341 17.4888 5.3953 16.7007 5.34147C15.127 5.23398 13.1399 5.14293 11.508 5.21193L11.5295 5.72126ZM19.4217 5.82753C19.1668 5.82666 19.1668 5.82663 19.1668 5.82661C19.1668 5.82661 19.1668 5.8266 19.1668 5.82661C19.1668 5.82662 19.1668 5.82667 19.1668 5.82675C19.1668 5.82692 19.1668 5.82722 19.1668 5.82765C19.1668 5.8285 19.1668 5.82989 19.1668 5.83179C19.1668 5.83558 19.1667 5.84143 19.1666 5.84923C19.1664 5.86482 19.166 5.88821 19.1652 5.91859C19.1637 5.97934 19.1608 6.06794 19.1551 6.17786C19.1438 6.39797 19.1216 6.70232 19.0783 7.03923C18.9901 7.72529 18.8193 8.50073 18.5051 8.99101L18.9343 9.2661C19.3145 8.6729 19.4948 7.79784 19.5839 7.10425C19.6293 6.75134 19.6524 6.43359 19.6643 6.20405C19.6702 6.08915 19.6733 5.99603 19.6749 5.93128C19.6757 5.8989 19.6761 5.87359 19.6763 5.85618C19.6765 5.84747 19.6765 5.84073 19.6766 5.83607C19.6766 5.83374 19.6766 5.83193 19.6766 5.83064C19.6766 5.83 19.6766 5.8295 19.6766 5.82912C19.6766 5.82893 19.6766 5.82878 19.6766 5.82866C19.6766 5.8286 19.6766 5.82854 19.6766 5.82851C19.6766 5.82845 19.6766 5.82841 19.4217 5.82753ZM18.4756 9.20187C18.5549 9.46609 18.6247 10.0054 18.6405 10.6994C18.6561 11.3867 18.6184 12.2048 18.4932 13.0181C18.3678 13.8331 18.1563 14.6322 17.8305 15.2882C17.5043 15.9451 17.0748 16.4367 16.5239 16.6774L16.7279 17.1445C17.4278 16.8389 17.9302 16.2335 18.2871 15.5149C18.6443 14.7955 18.867 13.9407 18.997 13.0956C19.1274 12.2489 19.1663 11.4007 19.1501 10.6878C19.1341 9.98166 19.0634 9.38681 18.9638 9.05524L18.4756 9.20187Z" fill="#393761" mask="url(#path-52-outside-3_911_46268)"/>
<mask id="path-54-outside-4_911_46268" maskUnits="userSpaceOnUse" x="-3.34729" y="17.666" width="30.1059" height="31.1024" fill="black">
<rect fill="white" x="-3.34729" y="17.666" width="30.1059" height="31.1024"/>
<path fill-rule="evenodd" clip-rule="evenodd" d="M19.5348 22.6681C22.2414 23.5466 25.4071 24.7611 25.7083 25.7157C26.0916 26.9303 26.4284 30.5739 26.4284 30.5739L26.4309 30.5739L23.4336 31.2519L20.9694 31.8093L20.4347 30.1532L21.0693 46.5756C10.0245 50.3664 3.28266 45.875 3.28266 45.875L4.09455 29.8373L2.84951 31.6683L1.02716 30.8796L-2.28154 29.4434C-2.28154 29.4434 0.438028 25.015 1.36185 23.945C1.78481 23.455 3.66667 22.8974 5.57869 22.4376C5.35182 21.8862 5.22275 21.2003 5.59682 20.6408C7.37999 17.9757 18.1153 18.2188 19.6265 20.541C20.0497 21.193 19.8513 22.005 19.5348 22.6681Z"/>
</mask>
<path fill-rule="evenodd" clip-rule="evenodd" d="M19.5348 22.6681C22.2414 23.5466 25.4071 24.7611 25.7083 25.7157C26.0916 26.9303 26.4284 30.5739 26.4284 30.5739L26.4309 30.5739L23.4336 31.2519L20.9694 31.8093L20.4347 30.1532L21.0693 46.5756C10.0245 50.3664 3.28266 45.875 3.28266 45.875L4.09455 29.8373L2.84951 31.6683L1.02716 30.8796L-2.28154 29.4434C-2.28154 29.4434 0.438028 25.015 1.36185 23.945C1.78481 23.455 3.66667 22.8974 5.57869 22.4376C5.35182 21.8862 5.22275 21.2003 5.59682 20.6408C7.37999 17.9757 18.1153 18.2188 19.6265 20.541C20.0497 21.193 19.8513 22.005 19.5348 22.6681Z" fill="#397497"/>
<path d="M19.5348 22.6681L19.3048 22.5583L19.1795 22.8208L19.4561 22.9105L19.5348 22.6681ZM25.7083 25.7157L25.4653 25.7924L25.4653 25.7924L25.7083 25.7157ZM26.4284 30.5739L26.1746 30.5974L26.1959 30.828L26.4275 30.8288L26.4284 30.5739ZM26.4309 30.5739L26.4871 30.8225L26.4318 30.319L26.4309 30.5739ZM23.4336 31.2519L23.3774 31.0033L23.3774 31.0033L23.4336 31.2519ZM20.9694 31.8093L20.7268 31.8876L20.7984 32.1093L21.0257 32.0579L20.9694 31.8093ZM20.4347 30.1532L20.6773 30.0749L20.18 30.1631L20.4347 30.1532ZM21.0693 46.5756L21.152 46.8167L21.3313 46.7552L21.324 46.5658L21.0693 46.5756ZM3.28266 45.875L3.0281 45.8621L3.02077 46.0068L3.14135 46.0871L3.28266 45.875ZM4.09455 29.8373L4.34912 29.8502L4.39509 28.9421L3.88377 29.694L4.09455 29.8373ZM2.84951 31.6683L2.74826 31.9022L2.94174 31.986L3.06028 31.8116L2.84951 31.6683ZM1.02716 30.8796L0.925675 31.1134L0.925917 31.1135L1.02716 30.8796ZM-2.28154 29.4434L-2.49874 29.31L-2.65244 29.5603L-2.38303 29.6772L-2.28154 29.4434ZM1.36185 23.945L1.55478 24.1116L1.55481 24.1116L1.36185 23.945ZM5.57869 22.4376L5.63829 22.6854L5.92764 22.6158L5.81441 22.3406L5.57869 22.4376ZM5.59682 20.6408L5.38497 20.4991L5.38493 20.4992L5.59682 20.6408ZM19.6265 20.541L19.8403 20.4022L19.8401 20.402L19.6265 20.541ZM19.4561 22.9105C20.8064 23.3488 22.2636 23.8685 23.4178 24.3952C23.9956 24.6589 24.489 24.9206 24.853 25.1705C25.0349 25.2953 25.1787 25.4134 25.2833 25.5228C25.3894 25.6338 25.4437 25.7242 25.4653 25.7924L25.9514 25.639C25.8976 25.4685 25.7872 25.3122 25.6519 25.1706C25.5151 25.0275 25.3411 24.8871 25.1415 24.7502C24.7426 24.4763 24.219 24.2005 23.6294 23.9314C22.4488 23.3926 20.9698 22.8659 19.6135 22.4257L19.4561 22.9105ZM25.4653 25.7924C25.6485 26.3732 25.8263 27.5631 25.9591 28.6317C26.0249 29.1609 26.0788 29.6526 26.1162 30.012C26.135 30.1917 26.1495 30.3382 26.1595 30.4397C26.1644 30.4905 26.1682 30.53 26.1707 30.5568C26.172 30.5701 26.173 30.5803 26.1736 30.5872C26.1739 30.5906 26.1742 30.5932 26.1743 30.5949C26.1744 30.5957 26.1745 30.5963 26.1745 30.5968C26.1745 30.597 26.1745 30.5971 26.1745 30.5972C26.1745 30.5973 26.1745 30.5973 26.1745 30.5973C26.1745 30.5974 26.1746 30.5974 26.4284 30.5739C26.6822 30.5504 26.6822 30.5504 26.6822 30.5504C26.6822 30.5503 26.6822 30.5503 26.6822 30.5502C26.6821 30.5501 26.6821 30.5499 26.6821 30.5497C26.6821 30.5492 26.682 30.5486 26.6819 30.5476C26.6817 30.5458 26.6815 30.5432 26.6812 30.5397C26.6805 30.5326 26.6795 30.5222 26.6782 30.5086C26.6757 30.4814 26.6718 30.4414 26.6668 30.3902C26.6568 30.2877 26.6421 30.1401 26.6233 29.9592C26.5856 29.5975 26.5313 29.1023 26.465 28.5688C26.3337 27.512 26.1514 26.2728 25.9514 25.639L25.4653 25.7924ZM26.4275 30.8288L26.43 30.8288L26.4318 30.319L26.4292 30.319L26.4275 30.8288ZM26.3747 30.3253L23.3774 31.0033L23.4898 31.5005L26.4871 30.8225L26.3747 30.3253ZM23.3774 31.0033L20.9132 31.5607L21.0257 32.0579L23.4898 31.5005L23.3774 31.0033ZM21.212 31.731L20.6773 30.0749L20.1921 30.2315L20.7268 31.8876L21.212 31.731ZM20.18 30.1631L20.8146 46.5855L21.324 46.5658L20.6894 30.1434L20.18 30.1631ZM20.9865 46.3345C15.511 48.2138 11.1114 48.0377 8.08698 47.3975C6.57382 47.0772 5.40326 46.6404 4.61319 46.2851C4.21818 46.1075 3.91837 45.9502 3.71854 45.8382C3.61863 45.7823 3.54373 45.7376 3.49443 45.7073C3.46978 45.6922 3.45154 45.6806 3.43977 45.6731C3.43389 45.6693 3.42963 45.6666 3.42699 45.6649C3.42567 45.664 3.42476 45.6634 3.42426 45.6631C3.42401 45.6629 3.42386 45.6628 3.42381 45.6628C3.42379 45.6628 3.42383 45.6628 3.42382 45.6628C3.42389 45.6628 3.42398 45.6629 3.28266 45.875C3.14135 46.0871 3.14149 46.0872 3.14166 46.0874C3.14175 46.0874 3.14195 46.0875 3.14213 46.0877C3.14249 46.0879 3.14296 46.0882 3.14353 46.0886C3.14468 46.0893 3.14623 46.0904 3.1482 46.0917C3.15213 46.0942 3.1577 46.0978 3.16491 46.1025C3.17933 46.1117 3.20029 46.1249 3.22772 46.1418C3.28257 46.1754 3.3633 46.2235 3.46931 46.2829C3.68132 46.4018 3.99451 46.5658 4.40412 46.75C5.2233 47.1184 6.42851 47.5675 7.98141 47.8962C11.0891 48.554 15.5829 48.7281 21.152 46.8167L20.9865 46.3345ZM3.53723 45.8879L4.34912 29.8502L3.83998 29.8244L3.0281 45.8621L3.53723 45.8879ZM3.88377 29.694L2.63873 31.525L3.06028 31.8116L4.30533 29.9807L3.88377 29.694ZM2.95075 31.4344L1.12841 30.6456L0.925917 31.1135L2.74826 31.9022L2.95075 31.4344ZM1.12865 30.6457L-2.18005 29.2096L-2.38303 29.6772L0.925675 31.1134L1.12865 30.6457ZM-2.28154 29.4434C-2.06434 29.5768 -2.06433 29.5768 -2.06431 29.5767C-2.06429 29.5767 -2.06426 29.5767 -2.06422 29.5766C-2.06414 29.5765 -2.06402 29.5763 -2.06386 29.576C-2.06354 29.5755 -2.06306 29.5747 -2.06241 29.5736C-2.06111 29.5715 -2.05917 29.5684 -2.0566 29.5642C-2.05146 29.5558 -2.0438 29.5434 -2.03376 29.5271C-2.01369 29.4945 -1.98409 29.4465 -1.94609 29.3851C-1.87007 29.2621 -1.7604 29.0853 -1.62591 28.8696C-1.35687 28.4383 -0.988641 27.8523 -0.591686 27.233C0.207643 25.986 1.10751 24.6296 1.55478 24.1116L1.16893 23.7785C0.692373 24.3304 -0.229458 25.7232 -1.02087 26.9579C-1.41928 27.5794 -1.78868 28.1674 -2.05844 28.5998C-2.19334 28.8161 -2.30335 28.9935 -2.37967 29.117C-2.41783 29.1787 -2.44757 29.2269 -2.46778 29.2597C-2.47789 29.2761 -2.48561 29.2886 -2.49082 29.2971C-2.49342 29.3013 -2.4954 29.3045 -2.49672 29.3067C-2.49739 29.3078 -2.49789 29.3086 -2.49822 29.3091C-2.49839 29.3094 -2.49852 29.3096 -2.49861 29.3098C-2.49865 29.3098 -2.49868 29.3099 -2.49871 29.3099C-2.49873 29.31 -2.49874 29.31 -2.28154 29.4434ZM1.55481 24.1116C1.62435 24.031 1.7805 23.9228 2.04115 23.7969C2.29376 23.6749 2.61751 23.5488 2.99362 23.4214C3.74527 23.1669 4.68516 22.9146 5.63829 22.6854L5.51909 22.1898C4.56019 22.4204 3.60315 22.6768 2.83012 22.9385C2.4439 23.0693 2.09838 23.2032 1.81943 23.3379C1.54853 23.4687 1.31084 23.614 1.16889 23.7785L1.55481 24.1116ZM5.81441 22.3406C5.59595 21.8096 5.50844 21.2316 5.80871 20.7825L5.38493 20.4992C4.93705 21.169 5.10769 21.9627 5.34297 22.5346L5.81441 22.3406ZM5.80867 20.7826C5.99936 20.4976 6.32204 20.2347 6.7676 20.0021C7.21135 19.7704 7.76223 19.5765 8.38972 19.4218C9.64476 19.1124 11.1791 18.9667 12.7122 18.9755C14.2451 18.9844 15.7637 19.1478 16.9865 19.4496C17.5981 19.6005 18.1287 19.7844 18.5478 19.9966C18.9704 20.2107 19.2587 20.4431 19.4129 20.68L19.8401 20.402C19.6165 20.0583 19.2387 19.7752 18.7781 19.5419C18.3138 19.3067 17.7439 19.1114 17.1087 18.9547C15.8379 18.641 14.2778 18.4748 12.7151 18.4658C11.1526 18.4567 9.57429 18.6048 8.26771 18.9268C7.6144 19.0879 7.02223 19.294 6.53168 19.5501C6.04294 19.8053 5.64007 20.1178 5.38497 20.4991L5.80867 20.7826ZM19.4127 20.6798C19.7582 21.212 19.6144 21.9096 19.3048 22.5583L19.7648 22.7779C20.0882 22.1004 20.3413 21.1741 19.8403 20.4022L19.4127 20.6798Z" fill="black" mask="url(#path-54-outside-4_911_46268)"/>
<path d="M10.4072 22.7913C10.7585 23.3985 11.4071 24.0016 12.5807 24.0926L12.5673 24.1058L12.875 24.1069C14.2382 24.1115 14.9634 23.4645 15.3408 22.8098C15.5276 22.4858 15.6279 22.1628 15.6817 21.9216C15.7086 21.8007 15.7241 21.6996 15.7328 21.6282C15.7371 21.5925 15.7398 21.5641 15.7414 21.5444L15.7431 21.5213L15.7435 21.5149L15.7436 21.513L15.7436 21.5124L15.7437 21.5122C15.7437 21.5121 15.7437 21.512 15.6164 21.5061L15.7437 21.512L15.7444 21.496L15.7412 21.4803L15.4754 20.1949L15.4754 20.1947L15.2096 18.9017L15.1888 18.8002L15.0852 18.7999L10.747 18.785L10.6463 18.7847L10.6227 18.8826L10.3021 20.212L10.3021 20.2121L10.0021 21.4549L9.9978 21.4728L9.99874 21.4913L10.126 21.4848C9.99874 21.4913 9.99874 21.4914 9.99875 21.4914L9.99876 21.4917L9.99879 21.4923L9.9989 21.4942L9.99931 21.5006L10.0011 21.5236C10.0028 21.5434 10.0056 21.5718 10.0102 21.6075C10.0192 21.6789 10.0351 21.7801 10.0625 21.9011C10.1174 22.1427 10.2191 22.4663 10.4072 22.7913Z" fill="white" stroke="black" stroke-width="0.254892"/>
<path d="M10.2992 20.212L10.2803 20.2904L10.343 20.341C10.4481 20.426 10.556 20.5189 10.6668 20.6144C10.8878 20.8049 11.1204 21.0053 11.3657 21.1719C11.7422 21.4275 12.1714 21.6218 12.6971 21.6236C13.2195 21.6253 13.7399 21.4322 14.2066 21.176C14.6745 20.9191 15.0982 20.5935 15.4292 20.3185L15.488 20.2697L15.4726 20.1949L15.2068 18.9016L15.186 18.8002L15.0824 18.7999L10.7442 18.785L10.6435 18.7847L10.6198 18.8826L10.2992 20.212Z" fill="#D9DCED" stroke="black" stroke-width="0.254892"/>
<path d="M17.1829 9.12219L17.1829 9.122L17.1829 9.12198L17.1797 8.80687L16.9631 9.03542L16.9631 9.03544L16.963 9.03549L16.963 9.0355L16.9629 9.03562L16.9625 9.0361L16.9587 9.0399C16.9551 9.0435 16.9493 9.04921 16.9412 9.05683C16.9251 9.07206 16.9 9.09492 16.8655 9.12377C16.7967 9.18146 16.6906 9.2631 16.5448 9.35566C16.2534 9.54071 15.8028 9.76972 15.1726 9.93822C13.9135 10.2749 11.9282 10.3725 9.05123 9.38056L8.86425 9.31609L8.88281 9.51301C8.98467 10.5938 8.7163 11.3005 8.4311 11.7343C8.28784 11.9522 8.13895 12.1033 8.02712 12.1993C7.98541 12.2351 7.9489 12.2631 7.91981 12.2841C7.89542 12.2639 7.86587 12.2405 7.83215 12.2155C7.73405 12.143 7.59499 12.0538 7.44136 11.9998C7.28864 11.946 7.10417 11.9212 6.93096 12.0043C6.7557 12.0883 6.62408 12.2673 6.54423 12.5502C6.42412 12.9737 6.53502 13.4493 6.76674 13.7858C6.97114 14.0826 7.29323 14.2985 7.65689 14.2379C7.6643 14.2765 7.67345 14.3227 7.68446 14.3758C7.72056 14.5498 7.77665 14.7979 7.85685 15.0954C8.01711 15.69 8.2743 16.4844 8.6619 17.2806C9.43331 18.8651 10.7448 20.5005 12.8745 20.5078C15.0046 20.5151 16.2978 18.9002 17.051 17.3321C17.4293 16.5444 17.6772 15.7575 17.8304 15.1685C17.9071 14.8737 17.9603 14.6278 17.9944 14.4553C18.0079 14.3869 18.0184 14.3299 18.0261 14.2861C18.4816 14.2446 18.8144 13.9147 18.9938 13.531C19.1857 13.1204 19.2218 12.6089 19.0254 12.2406L19.0252 12.2402C18.9249 12.0535 18.7908 11.9451 18.6382 11.9016C18.4899 11.8594 18.3418 11.8835 18.219 11.9257C18.0954 11.9681 17.9869 12.0323 17.9107 12.0841C17.9059 12.0874 17.9011 12.0907 17.8965 12.0939C17.5672 11.5874 17.3872 10.8836 17.2907 10.2774C17.2394 9.95499 17.2124 9.6654 17.1982 9.45645C17.1912 9.35205 17.1873 9.26795 17.1852 9.21018C17.1842 9.1813 17.1836 9.15901 17.1833 9.14406L17.1829 9.12724L17.1829 9.12314L17.1829 9.12219ZM17.9197 14.2904L17.9201 14.1633C17.9193 14.1632 17.9184 14.1631 17.9176 14.1629L17.9171 14.2904L17.9194 14.2904L17.9197 14.2904Z" fill="white" stroke="black" stroke-width="0.254892"/>
<path d="M13.2626 14.933L13.0403 12.0171L13.0402 12.0167L13.0402 12.0167C13.0334 11.9162 13.1062 11.8277 13.2092 11.8207C13.3096 11.8139 13.3979 11.8866 13.4051 11.9894L13.4051 11.9892L13.2626 14.933ZM13.2626 14.933L12.7334 14.9312C12.6317 14.9309 12.5506 15.0113 12.5503 15.1131C12.5499 15.2149 12.6304 15.2959 12.7322 15.2963L13.5963 15.2992L13.5988 15.2992L13.6585 15.2994L13.6539 15.2399L13.4051 11.9897L13.2626 14.933Z" fill="#423C86" stroke="#423C86" stroke-width="0.110155"/>
<path d="M14.8574 13.4869C14.8572 13.5539 14.9114 13.598 14.9625 13.6222C15.0173 13.6482 15.0894 13.6626 15.1668 13.6629C15.2441 13.6632 15.3163 13.6492 15.3713 13.6236C15.4225 13.5997 15.4771 13.556 15.4773 13.489L15.4791 12.9641C15.4794 12.8971 15.4251 12.853 15.374 12.8288C15.3192 12.8028 15.2471 12.7883 15.1698 12.7881C15.0924 12.7878 15.0202 12.8017 14.9652 12.8274C14.914 12.8512 14.8594 12.895 14.8592 12.962L14.8574 13.4869Z" fill="#423C86" stroke="#423C86" stroke-width="0.110155"/>
<path d="M10.7793 13.473C10.779 13.54 10.8333 13.5841 10.8844 13.6083C10.9392 13.6343 11.0113 13.6487 11.0886 13.649C11.166 13.6493 11.2382 13.6353 11.2932 13.6097C11.3444 13.5858 11.399 13.5421 11.3992 13.4751L11.401 12.9502C11.4012 12.8832 11.3469 12.8391 11.2959 12.8149C11.2411 12.7889 11.169 12.7744 11.0916 12.7742C11.0143 12.7739 10.9421 12.7878 10.8871 12.8135C10.8359 12.8373 10.7813 12.8811 10.7811 12.948L10.7793 13.473Z" fill="#423C86" stroke="#423C86" stroke-width="0.110155"/>
<path d="M14.4954 12.3736L14.5084 12.3736L14.5147 12.3705C14.5555 12.3671 14.5935 12.349 14.6242 12.3216L14.6242 12.3216L14.6251 12.3208C14.9838 11.9851 15.3563 11.9808 15.6464 12.0635C15.9396 12.1471 16.1472 12.3198 16.1624 12.3329C16.2397 12.3996 16.3534 12.3879 16.4185 12.3125C16.4853 12.2351 16.4736 12.1214 16.3981 12.0563L16.3982 12.0562L16.3953 12.0541C16.3977 12.0558 16.3756 12.0379 16.3456 12.016C16.3138 11.9927 16.2681 11.9612 16.2108 11.9264C16.0963 11.8569 15.9344 11.7738 15.7425 11.7186C15.3569 11.6075 14.8498 11.6094 14.372 12.0562L14.372 12.0562L14.3719 12.0564C14.2993 12.1248 14.2946 12.2401 14.3625 12.3137C14.3979 12.3562 14.4501 12.3734 14.4954 12.3736Z" fill="#423C86" stroke="#423C86" stroke-width="0.110155"/>
<path d="M9.90549 12.3139L9.90551 12.3139L9.90701 12.3126L9.90701 12.3126C9.90704 12.3125 9.90711 12.3125 9.90725 12.3123L9.90799 12.3117L9.9106 12.3095L9.91953 12.3022C9.92702 12.2962 9.93741 12.2882 9.95049 12.2786C9.97665 12.2594 10.0134 12.2341 10.0589 12.2067C10.1501 12.1517 10.2758 12.0887 10.4223 12.0481C10.7132 11.9674 11.086 11.9742 11.4423 12.3118C11.4723 12.3417 11.513 12.3593 11.5529 12.3628L11.5592 12.366L11.5722 12.366C11.6221 12.3662 11.6688 12.3435 11.7031 12.3095L11.7031 12.3095L11.704 12.3085C11.7739 12.2355 11.7704 12.119 11.6978 12.0497L11.6977 12.0495C11.223 11.5994 10.7158 11.5941 10.3295 11.7025C10.1373 11.7564 9.97475 11.8384 9.85982 11.9071C9.80226 11.9415 9.7564 11.9727 9.72446 11.9957C9.69711 12.0154 9.67639 12.0318 9.67441 12.0335L9.6744 12.0335L9.67281 12.0348C9.59492 12.0974 9.58392 12.2141 9.64898 12.2912C9.71187 12.3687 9.8286 12.3794 9.90549 12.3139Z" fill="#423C86" stroke="#423C86" stroke-width="0.110155"/>
<path d="M12.3029 16.2278L12.3028 16.2278L12.3024 16.2286C12.2558 16.3176 12.2866 16.4269 12.374 16.4754C12.4106 16.4973 12.7242 16.6598 13.1221 16.6611L13.1247 16.6611C13.337 16.6619 13.5741 16.6148 13.8061 16.4773L13.8061 16.4773L13.807 16.4767C13.894 16.4227 13.9198 16.3132 13.8696 16.2266L13.8696 16.2266L13.8687 16.2251C13.8148 16.1382 13.7053 16.1124 13.6186 16.1626L13.6186 16.1625L13.618 16.1629C13.3718 16.3095 13.1078 16.3096 12.9012 16.2708C12.7054 16.234 12.5659 16.1632 12.5508 16.1554C12.4635 16.1078 12.3509 16.1398 12.3029 16.2278Z" fill="#423C86" stroke="#423C86" stroke-width="0.110155"/>
<path d="M6.98878 7.85228L7.03371 7.97155C7.3544 7.85075 7.61393 7.85407 7.81687 7.95429C7.97968 8.03478 8.09462 8.17104 8.17023 8.29423C8.20762 8.35515 8.23413 8.41083 8.25111 8.45111C8.25916 8.47021 8.26497 8.48559 8.26869 8.4961L8.26869 8.49673L8.27516 8.51638C8.31 8.62209 8.40945 8.69319 8.51781 8.69356L8.52036 8.69357C8.54397 8.69365 8.5685 8.68873 8.57879 8.68666C8.57965 8.68649 8.58042 8.68634 8.58107 8.68621L8.58119 8.68685L8.59356 8.68309C8.72655 8.64267 8.80394 8.50073 8.76309 8.36634L8.76313 8.36633L8.7622 8.36352L8.7622 8.36352L8.762 8.36291L8.76128 8.36068L8.7589 8.35337C8.75693 8.34741 8.75427 8.33955 8.75087 8.32999C8.74409 8.31089 8.73442 8.28518 8.72152 8.25447C8.69576 8.19317 8.65689 8.11139 8.60194 8.02221C8.4926 7.84475 8.31565 7.63168 8.04569 7.49697L8.04569 7.49697L8.04542 7.49683C7.69551 7.32326 7.29028 7.32743 6.85269 7.49319L6.85269 7.49319L6.8525 7.49326C6.7208 7.5434 6.65377 7.69056 6.70425 7.82314C6.75438 7.95484 6.90154 8.02186 7.03412 7.97139L6.98878 7.85228ZM6.98878 7.85228C6.92242 7.87754 6.84862 7.84416 6.82335 7.7778C6.79809 7.71144 6.83148 7.63763 6.89784 7.61237M6.98878 7.85228C7.33078 7.72346 7.62902 7.71938 7.8733 7.84001C8.25754 8.02995 8.39623 8.47139 8.39621 8.47649L6.89784 7.61237M6.89784 7.61237C7.3113 7.45575 7.67835 7.45701 7.98879 7.611C8.46227 7.84727 8.62678 8.35872 8.64049 8.40134C8.64078 8.40224 8.641 8.40293 8.64116 8.40341C8.66132 8.46975 8.62284 8.54099 8.5565 8.56115L6.89784 7.61237Z" fill="#393761" stroke="#393761" stroke-width="0.254892"/>
<path d="M8.16453 6.31335L8.16453 6.31335L8.16407 6.31405C8.14227 6.34771 7.99339 6.6006 7.97762 7.04737C7.96181 7.49542 8.08025 8.12888 8.5797 8.92145C8.60232 8.95883 8.63281 8.98741 8.66735 9.00724L8.66723 9.04323L8.79467 9.04366C8.84318 9.04383 8.89192 9.02871 8.93117 9.00437L8.93119 9.00439L8.93325 9.00305C9.04901 8.92812 9.08712 8.77139 9.01031 8.65183C8.58112 7.97065 8.48438 7.44708 8.4897 7.10058C8.49237 6.92662 8.52078 6.79507 8.54768 6.70826C8.56911 6.63909 8.5895 6.59814 8.59753 6.58302C8.66679 6.46436 8.63287 6.31274 8.51704 6.23664L8.51705 6.23662L8.51497 6.23531C8.39106 6.15727 8.23836 6.20099 8.16453 6.31335Z" fill="#393761" stroke="#393761" stroke-width="0.254892"/>
<path d="M11.7617 23.2083L12.9211 25.5674L13.9665 23.2158" fill="white"/>
<path d="M10.8958 25.2011C11.1573 25.202 11.3706 24.9902 11.3715 24.7286C11.3724 24.4671 11.1606 24.2538 10.899 24.2529C10.6375 24.252 10.4242 24.4638 10.4233 24.7254C10.4224 24.9869 10.6342 25.2002 10.8958 25.2011Z" fill="white" stroke="black" stroke-width="0.254892"/>
<path d="M15.0661 25.2152C15.3279 25.2161 15.5409 25.0046 15.5418 24.7428C15.5427 24.4809 15.3312 24.2679 15.0693 24.2671C14.8075 24.2662 14.5945 24.4777 14.5936 24.7395C14.5927 25.0014 14.8042 25.2143 15.0661 25.2152Z" fill="white" stroke="black" stroke-width="0.254892"/>
<path d="M11.8067 28.0104L11.9218 27.9556C11.984 28.0864 11.9211 28.2383 11.7976 28.2944L11.7948 28.2957L11.7947 28.2957C11.7685 28.3068 11.7326 28.3185 11.6909 28.3184L11.6884 28.3184C11.5922 28.318 11.5 28.2625 11.4583 28.1693C10.9686 27.111 10.6832 25.9809 10.6122 24.8155L10.7394 24.8078M11.8067 28.0104L11.9223 27.9568C11.4583 26.9551 11.1882 25.8889 11.1216 24.7857L11.1216 24.7857L11.1215 24.7847C11.1118 24.6413 10.9893 24.5412 10.8554 24.5457L10.8554 24.5457L10.8511 24.546C10.7133 24.5553 10.6024 24.6711 10.6123 24.8164L10.7394 24.8078M11.8067 28.0104C11.8371 28.0742 11.8062 28.1505 11.7449 28.1784C11.7271 28.186 11.7092 28.191 11.6914 28.1909L11.6888 28.1909C11.6404 28.1908 11.5946 28.1626 11.5744 28.1166M11.8067 28.0104L11.5744 28.1166M10.7394 24.8078C10.8094 25.9576 11.0911 27.0725 11.5744 28.1166M10.7394 24.8078C10.7346 24.7364 10.7883 24.678 10.8597 24.6731L11.5744 28.1166" fill="white" stroke="black" stroke-width="0.254892"/>
<path d="M14.334 27.1123L14.3339 27.1124L14.3284 27.1245C14.1844 27.4374 14.0322 27.768 13.9202 28.1127C13.8746 28.2458 13.9486 28.391 14.0799 28.4344C14.0872 28.4371 14.0944 28.4392 14.1013 28.4409L14.1096 28.4492L14.1624 28.4494C14.2748 28.4497 14.3711 28.3779 14.4062 28.2738L14.4062 28.2738L14.4067 28.2724C14.5096 27.955 14.6552 27.6386 14.7995 27.3271L14.7995 27.3271L14.7998 27.3265L14.8086 27.3071C14.9161 27.0718 15.0298 26.8229 15.1265 26.5709L15.1267 26.5704C15.4104 25.8217 15.4717 25.151 15.2835 24.5809C15.2415 24.4423 15.0941 24.3724 14.9631 24.4156C14.824 24.4579 14.7542 24.6063 14.7986 24.7377C14.9424 25.1771 14.9003 25.7286 14.6493 26.3871C14.5558 26.6295 14.4445 26.8728 14.334 27.1123Z" fill="white" stroke="black" stroke-width="0.254892"/>
</g>
</g>
<defs>
<filter id="filter0_d_911_46268" x="16.5395" y="5.5166" width="36.901" height="93.4214" filterUnits="userSpaceOnUse" color-interpolation-filters="sRGB">
<feFlood flood-opacity="0" result="BackgroundImageFix"/>
<feColorMatrix in="SourceAlpha" type="matrix" values="0 0 0 0 0 0 0 0 0 0 0 0 0 0 0 0 0 0 127 0" result="hardAlpha"/>
<feOffset dy="1.34351"/>
<feGaussianBlur stdDeviation="0.671756"/>
<feComposite in2="hardAlpha" operator="out"/>
<feColorMatrix type="matrix" values="0 0 0 0 0 0 0 0 0 0 0 0 0 0 0 0 0 0 0.25 0"/>
<feBlend mode="normal" in2="BackgroundImageFix" result="effect1_dropShadow_911_46268"/>
<feBlend mode="normal" in="SourceGraphic" in2="effect1_dropShadow_911_46268" result="shape"/>
</filter>
<filter id="filter1_d_911_46268" x="-8.31281" y="5.18799" width="38.9973" height="92.4605" filterUnits="userSpaceOnUse" color-interpolation-filters="sRGB">
<feFlood flood-opacity="0" result="BackgroundImageFix"/>
<feColorMatrix in="SourceAlpha" type="matrix" values="0 0 0 0 0 0 0 0 0 0 0 0 0 0 0 0 0 0 127 0" result="hardAlpha"/>
<feOffset dy="1.34351"/>
<feGaussianBlur stdDeviation="0.671756"/>
<feComposite in2="hardAlpha" operator="out"/>
<feColorMatrix type="matrix" values="0 0 0 0 0 0 0 0 0 0 0 0 0 0 0 0 0 0 0.25 0"/>
<feBlend mode="normal" in2="BackgroundImageFix" result="effect1_dropShadow_911_46268"/>
<feBlend mode="normal" in="SourceGraphic" in2="effect1_dropShadow_911_46268" result="shape"/>
</filter>
<clipPath id="clip0_911_46268">
<rect x="0.601013" y="0.462402" width="45.7959" height="44" rx="22" transform="rotate(0.195967 0.601013 0.462402)" fill="white"/>
</clipPath>
</defs>
</svg>
