<svg width="47" height="45" viewBox="0 0 47 45" fill="none" xmlns="http://www.w3.org/2000/svg">
<g clip-path="url(#clip0_911_46222)">
<path d="M43.9081 59.8623L44.0487 59.8323L44.0353 59.6891L41.7524 35.2796L41.7352 35.0964L41.5558 35.137L37.7544 35.9968L37.7542 35.9969L37.5279 36.0478L37.5277 36.0478L34.6288 36.7039L34.4736 36.739L34.5063 36.8948L38.9185 57.8912L38.9227 57.9112L38.9317 57.9295L39.2975 58.6706L39.2977 58.6711L40.2061 60.5262L40.2615 60.6395L40.3849 60.6132L43.9081 59.8623Z" fill="white" stroke="black" stroke-width="0.323285"/>
<path d="M41.3721 59.7215L39.4427 58.5996L39.0766 57.858L34.6645 36.8616L36.8742 36.3616L37.5619 40.4147L41.3721 59.7215Z" fill="#D9DCED"/>
<path d="M5.17789 33.8607C5.03776 33.7801 5.03774 33.7801 5.0377 33.7802L5.03753 33.7805L5.03687 33.7816L5.03426 33.7862L5.02397 33.8041L4.98383 33.8741C4.94865 33.9355 4.897 34.0258 4.83107 34.1415C4.69922 34.3727 4.51025 34.7052 4.28171 35.1105C3.82467 35.9208 3.20927 37.0222 2.57599 38.1858C1.94283 39.3492 1.29124 40.5759 0.76205 41.6366C0.235739 42.6915 -0.176525 43.5959 -0.323961 44.1095C-0.330418 44.1308 -0.337048 44.1563 -0.342747 44.1782C-0.345795 44.1899 -0.348576 44.2006 -0.350922 44.209L-0.350972 44.2092C-1.08764 46.8864 -0.12903 48.7812 1.01215 49.9985C1.58063 50.6048 2.19393 51.0433 2.66433 51.33C2.89979 51.4735 3.10017 51.5795 3.24226 51.6498C3.31333 51.6849 3.36988 51.7112 3.40902 51.7289C3.42859 51.7377 3.44382 51.7443 3.45433 51.7489L3.46654 51.7541L3.46991 51.7555L3.4709 51.7559L3.47121 51.756C3.47132 51.7561 3.47141 51.7561 3.53309 51.6067L3.47141 51.7561L3.60113 51.8097L3.67236 51.6888L4.77469 49.8175L4.7747 49.8175L6.06563 47.6268L6.11592 47.5414L6.06272 47.4579L5.3257 46.3004L6.2668 44.9208L6.27011 44.9208L6.31843 44.8499L11.8193 36.7736L11.9293 36.612L11.75 36.5343L5.24219 33.7124L5.10973 33.6549L5.03776 33.7801L5.17789 33.8607Z" fill="white" stroke="black" stroke-width="0.323285"/>
<path d="M4.63545 49.7356L3.53311 51.6069C3.53311 51.6069 -1.63219 49.4749 -0.195101 44.2523C0.0153067 46.0634 1.04496 48.4302 4.63868 49.7356L4.63545 49.7356Z" fill="#EAEAFF"/>
<mask id="path-6-outside-1_911_46222" maskUnits="userSpaceOnUse" x="15.8605" y="2.39185" width="18.0546" height="16.0615" fill="black">
<rect fill="white" x="15.8605" y="2.39185" width="18.0546" height="16.0615"/>
<path d="M19.4598 17.9812C19.4598 17.9812 17.345 18.1097 16.9479 12.2957C16.4952 5.69907 18.7188 6.81232 18.7188 6.81232C18.7188 6.81232 18.5746 3.62098 22.6777 3.45074C26.7808 3.27727 32.7012 3.90853 32.7012 3.90853C32.7012 3.90853 32.6916 6.72109 31.8108 8.09528C32.2647 9.60659 32.3281 16.5801 29.1552 17.9659"/>
</mask>
<path d="M19.4598 17.9812C19.4598 17.9812 17.345 18.1097 16.9479 12.2957C16.4952 5.69907 18.7188 6.81232 18.7188 6.81232C18.7188 6.81232 18.5746 3.62098 22.6777 3.45074C26.7808 3.27727 32.7012 3.90853 32.7012 3.90853C32.7012 3.90853 32.6916 6.72109 31.8108 8.09528C32.2647 9.60659 32.3281 16.5801 29.1552 17.9659" fill="#393761"/>
<path d="M16.9479 12.2957L17.2704 12.2736L17.2704 12.2735L16.9479 12.2957ZM18.7188 6.81232L18.5741 7.1014L19.0667 7.34799L19.0418 6.79772L18.7188 6.81232ZM22.6777 3.45074L22.6911 3.77375L22.6913 3.77374L22.6777 3.45074ZM32.7012 3.90853L33.0245 3.90964L33.0255 3.61799L32.7355 3.58707L32.7012 3.90853ZM31.8108 8.09528L31.5386 7.92083L31.4584 8.04594L31.5012 8.18827L31.8108 8.09528ZM19.4598 17.9812C19.4401 17.6585 19.4406 17.6585 19.441 17.6584C19.4411 17.6584 19.4415 17.6584 19.4418 17.6584C19.4423 17.6584 19.4428 17.6583 19.4433 17.6583C19.4442 17.6583 19.445 17.6582 19.4457 17.6582C19.447 17.6582 19.4479 17.6581 19.4484 17.6581C19.4493 17.6581 19.4484 17.6582 19.4458 17.6581C19.4407 17.6579 19.4288 17.6573 19.411 17.6549C19.3755 17.6502 19.3162 17.6384 19.2394 17.6088C19.088 17.5504 18.8562 17.4182 18.6012 17.1118C18.0857 16.4928 17.467 15.151 17.2704 12.2736L16.6253 12.3177C16.8259 15.2544 17.4631 16.7554 18.1043 17.5256C18.4276 17.9138 18.7493 18.1128 19.0069 18.2121C19.1345 18.2613 19.2435 18.2848 19.3252 18.2958C19.3661 18.3012 19.4 18.3035 19.426 18.3043C19.439 18.3047 19.45 18.3048 19.459 18.3046C19.4634 18.3045 19.4674 18.3044 19.4708 18.3043C19.4725 18.3042 19.4741 18.3042 19.4755 18.3041C19.4762 18.3041 19.4769 18.304 19.4775 18.304C19.4779 18.304 19.4783 18.3039 19.4785 18.3039C19.4789 18.3039 19.4794 18.3039 19.4598 17.9812ZM17.2704 12.2735C17.1582 10.6392 17.2133 9.5003 17.352 8.71196C17.4912 7.92065 17.71 7.50868 17.9022 7.29838C18.0843 7.09921 18.2574 7.06396 18.3764 7.06472C18.4408 7.06514 18.4956 7.07657 18.5333 7.08761C18.5518 7.09305 18.5654 7.09813 18.5727 7.10112C18.5764 7.1026 18.5785 7.10353 18.5788 7.10366C18.5789 7.10373 18.5786 7.10359 18.5778 7.10323C18.5775 7.10304 18.577 7.1028 18.5763 7.1025C18.576 7.10235 18.5757 7.10218 18.5753 7.102C18.5751 7.1019 18.5748 7.10175 18.5747 7.10171C18.5744 7.10156 18.5741 7.1014 18.7188 6.81232C18.8636 6.52324 18.8632 6.52307 18.8629 6.5229C18.8628 6.52284 18.8624 6.52266 18.8622 6.52254C18.8617 6.52229 18.8611 6.52202 18.8605 6.52174C18.8594 6.52117 18.8581 6.52054 18.8566 6.51984C18.8537 6.51846 18.8502 6.51683 18.8462 6.51499C18.8381 6.51131 18.8277 6.50679 18.8152 6.50173C18.7902 6.49163 18.7564 6.47924 18.7151 6.46712C18.6329 6.44305 18.5175 6.41905 18.3805 6.41817C18.0967 6.41634 17.7422 6.51506 17.425 6.86215C17.1179 7.19812 16.8656 7.7447 16.7152 8.59995C16.5643 9.45817 16.5112 10.6538 16.6253 12.3178L17.2704 12.2735ZM18.7188 6.81232C19.0418 6.79772 19.0418 6.79791 19.0418 6.79809C19.0418 6.79813 19.0418 6.7983 19.0418 6.79839C19.0418 6.79856 19.0418 6.79869 19.0418 6.79877C19.0418 6.79893 19.0418 6.79891 19.0418 6.7987C19.0418 6.79828 19.0418 6.79713 19.0417 6.79526C19.0416 6.79152 19.0415 6.78493 19.0415 6.77568C19.0415 6.75716 19.0418 6.72807 19.0436 6.68986C19.0471 6.61333 19.0564 6.50097 19.0792 6.36444C19.1252 6.0904 19.225 5.72561 19.439 5.35801C19.855 4.64334 20.7388 3.85475 22.6911 3.77375L22.6643 3.12773C20.5135 3.21697 19.4178 4.10917 18.8802 5.03273C18.6174 5.48424 18.4968 5.92792 18.4416 6.25758C18.4139 6.42289 18.4023 6.5612 18.3977 6.65985C18.3954 6.70924 18.3949 6.74887 18.3949 6.77719C18.395 6.79136 18.3952 6.80271 18.3954 6.81106C18.3955 6.81523 18.3956 6.81866 18.3957 6.82131C18.3957 6.82263 18.3958 6.82376 18.3958 6.8247C18.3958 6.82517 18.3958 6.82559 18.3958 6.82596C18.3958 6.82614 18.3959 6.82638 18.3959 6.82647C18.3959 6.8267 18.3959 6.82692 18.7188 6.81232ZM22.6913 3.77374C24.7246 3.68778 27.2161 3.80119 29.2061 3.93712C30.1996 4.00498 31.0654 4.07826 31.6827 4.13455C31.9913 4.1627 32.2377 4.1866 32.4068 4.20344C32.4913 4.21186 32.5565 4.21852 32.6005 4.22306C32.6225 4.22533 32.6392 4.22707 32.6504 4.22824C32.6559 4.22883 32.6601 4.22927 32.6629 4.22956C32.6643 4.22971 32.6653 4.22982 32.666 4.22989C32.6663 4.22993 32.6666 4.22995 32.6667 4.22997C32.6668 4.22998 32.6669 4.22999 32.6669 4.22999C32.6669 4.22999 32.667 4.22999 32.7012 3.90853C32.7355 3.58707 32.7355 3.58706 32.7354 3.58706C32.7354 3.58705 32.7353 3.58704 32.7352 3.58703C32.735 3.58701 32.7347 3.58698 32.7343 3.58694C32.7335 3.58686 32.7324 3.58674 32.7309 3.58658C32.728 3.58627 32.7236 3.58581 32.7179 3.58521C32.7064 3.584 32.6893 3.58222 32.6669 3.57991C32.6222 3.57529 32.5562 3.56855 32.4709 3.56005C32.3002 3.54305 32.052 3.51898 31.7414 3.49066C31.1204 3.43402 30.2496 3.36032 29.2501 3.29205C27.2541 3.15571 24.7339 3.04023 22.664 3.12774L22.6913 3.77374ZM32.7012 3.90853C32.3779 3.90742 32.3779 3.90739 32.3779 3.90736C32.3779 3.90736 32.3779 3.90735 32.3779 3.90736C32.3779 3.90738 32.3779 3.90744 32.3779 3.90754C32.3779 3.90775 32.3779 3.90813 32.3779 3.90867C32.3779 3.90976 32.3779 3.91152 32.3779 3.91392C32.3779 3.91874 32.3778 3.92615 32.3777 3.93604C32.3774 3.95583 32.3769 3.98549 32.3759 4.02401C32.374 4.10107 32.3703 4.21344 32.3631 4.35286C32.3488 4.63203 32.3206 5.01804 32.2657 5.44535C32.1538 6.3155 31.9372 7.299 31.5386 7.92083L32.083 8.26974C32.5652 7.51737 32.7938 6.40751 32.907 5.52782C32.9645 5.08021 32.9939 4.6772 33.0088 4.38607C33.0163 4.24034 33.0202 4.12224 33.0223 4.04012C33.0233 3.99905 33.0239 3.96695 33.0242 3.94486C33.0243 3.93382 33.0244 3.92527 33.0245 3.91936C33.0245 3.9164 33.0245 3.9141 33.0245 3.91248C33.0245 3.91166 33.0245 3.91102 33.0245 3.91054C33.0245 3.91031 33.0245 3.91011 33.0245 3.90996C33.0245 3.90989 33.0245 3.9098 33.0245 3.90977C33.0245 3.9097 33.0245 3.90964 32.7012 3.90853ZM31.5012 8.18827C31.6018 8.52339 31.6903 9.20735 31.7103 10.0876C31.7302 10.9594 31.6823 11.9969 31.5235 13.0285C31.3645 14.0622 31.0962 15.0756 30.683 15.9077C30.2693 16.7408 29.7246 17.3644 29.0258 17.6696L29.2846 18.2621C30.1722 17.8744 30.8095 17.1067 31.2621 16.1953C31.7152 15.2829 31.9976 14.1986 32.1626 13.1268C32.3279 12.0529 32.3773 10.9771 32.3568 10.0729C32.3364 9.1773 32.2467 8.42283 32.1204 8.00229L31.5012 8.18827Z" fill="#393761" mask="url(#path-6-outside-1_911_46222)"/>
<mask id="path-8-outside-2_911_46222" maskUnits="userSpaceOnUse" x="4.09104" y="19.1921" width="38.1332" height="39.1297" fill="black">
<rect fill="white" x="4.09104" y="19.1921" width="38.1332" height="39.1297"/>
<path fill-rule="evenodd" clip-rule="evenodd" d="M32.8443 25.2671C36.2772 26.3813 40.2924 27.9217 40.6744 29.1325C41.1605 30.673 41.5876 35.2942 41.5876 35.2942L41.5909 35.2942L37.7893 36.1541L34.6639 36.8611L33.9858 34.7607L34.7906 55.5896C20.7823 60.3974 12.2315 54.701 12.2315 54.701L13.2612 34.36L11.6821 36.6823L9.37077 35.6819L5.17427 33.8604C5.17427 33.8604 8.62356 28.2437 9.79526 26.8867C10.3317 26.2652 12.7185 25.558 15.1435 24.9748C14.8558 24.2754 14.6921 23.4055 15.1665 22.6959C17.4281 19.3156 31.0439 19.6241 32.9607 22.5693C33.4975 23.3963 33.2457 24.4261 32.8443 25.2671Z"/>
</mask>
<path fill-rule="evenodd" clip-rule="evenodd" d="M32.8443 25.2671C36.2772 26.3813 40.2924 27.9217 40.6744 29.1325C41.1605 30.673 41.5876 35.2942 41.5876 35.2942L41.5909 35.2942L37.7893 36.1541L34.6639 36.8611L33.9858 34.7607L34.7906 55.5896C20.7823 60.3974 12.2315 54.701 12.2315 54.701L13.2612 34.36L11.6821 36.6823L9.37077 35.6819L5.17427 33.8604C5.17427 33.8604 8.62356 28.2437 9.79526 26.8867C10.3317 26.2652 12.7185 25.558 15.1435 24.9748C14.8558 24.2754 14.6921 23.4055 15.1665 22.6959C17.4281 19.3156 31.0439 19.6241 32.9607 22.5693C33.4975 23.3963 33.2457 24.4261 32.8443 25.2671Z" fill="#397497"/>
<path d="M32.8443 25.2671L32.5526 25.1279L32.3937 25.4608L32.7445 25.5746L32.8443 25.2671ZM40.6744 29.1325L40.3661 29.2298L40.3661 29.2298L40.6744 29.1325ZM41.5876 35.2942L41.2657 35.324L41.2928 35.6165L41.5865 35.6175L41.5876 35.2942ZM41.5909 35.2942L41.6622 35.6096L41.592 34.971L41.5909 35.2942ZM37.7893 36.1541L37.718 35.8388L37.718 35.8388L37.7893 36.1541ZM34.6639 36.8611L34.3563 36.9604L34.4471 37.2416L34.7353 37.1764L34.6639 36.8611ZM33.9858 34.7607L34.2934 34.6613L33.6627 34.7731L33.9858 34.7607ZM34.7906 55.5896L34.8956 55.8953L35.123 55.8173L35.1137 55.5771L34.7906 55.5896ZM12.2315 54.701L11.9086 54.6846L11.8993 54.8681L12.0522 54.97L12.2315 54.701ZM13.2612 34.36L13.5841 34.3764L13.6424 33.2245L12.9939 34.1782L13.2612 34.36ZM11.6821 36.6823L11.5537 36.979L11.7991 37.0852L11.9494 36.8641L11.6821 36.6823ZM9.37077 35.6819L9.24205 35.9784L9.24236 35.9786L9.37077 35.6819ZM5.17427 33.8604L4.89879 33.6912L4.70385 34.0086L5.04555 34.1569L5.17427 33.8604ZM9.79526 26.8867L10.04 27.098L10.04 27.0979L9.79526 26.8867ZM15.1435 24.9748L15.2191 25.2891L15.5861 25.2008L15.4425 24.8518L15.1435 24.9748ZM15.1665 22.6959L14.8978 22.5162L14.8978 22.5162L15.1665 22.6959ZM32.9607 22.5693L33.2318 22.3933L33.2316 22.3929L32.9607 22.5693ZM32.7445 25.5746C34.4571 26.1305 36.3054 26.7896 37.7692 27.4577C38.5021 27.7921 39.128 28.124 39.5896 28.4409C39.8203 28.5993 40.0027 28.749 40.1354 28.8878C40.2699 29.0286 40.3388 29.1433 40.3661 29.2298L40.9827 29.0352C40.9145 28.819 40.7744 28.6206 40.6028 28.4411C40.4293 28.2596 40.2086 28.0816 39.9555 27.9079C39.4496 27.5606 38.7855 27.2107 38.0377 26.8695C36.5402 26.1861 34.6644 25.518 32.9441 24.9596L32.7445 25.5746ZM40.3661 29.2298C40.5986 29.9664 40.824 31.4756 40.9925 32.8309C41.0759 33.5021 41.1443 34.1257 41.1918 34.5816C41.2155 34.8095 41.234 34.9953 41.2466 35.1241C41.2529 35.1884 41.2577 35.2385 41.2609 35.2725C41.2625 35.2895 41.2637 35.3024 41.2645 35.3111C41.2649 35.3154 41.2652 35.3186 41.2654 35.3208C41.2655 35.3219 41.2656 35.3227 41.2657 35.3232C41.2657 35.3235 41.2657 35.3237 41.2657 35.3238C41.2657 35.3239 41.2657 35.3239 41.2657 35.3239C41.2657 35.324 41.2657 35.324 41.5876 35.2942C41.9096 35.2645 41.9096 35.2644 41.9096 35.2644C41.9095 35.2644 41.9095 35.2643 41.9095 35.2642C41.9095 35.2641 41.9095 35.2638 41.9095 35.2635C41.9094 35.2629 41.9093 35.2621 41.9092 35.2609C41.909 35.2586 41.9087 35.2552 41.9083 35.2508C41.9074 35.2419 41.9062 35.2287 41.9046 35.2114C41.9013 35.1769 41.8964 35.1262 41.8901 35.0612C41.8774 34.9313 41.8588 34.744 41.8349 34.5146C41.7871 34.0558 41.7183 33.4278 41.6341 32.7512C41.4675 31.4108 41.2364 29.839 40.9827 29.0352L40.3661 29.2298ZM41.5865 35.6175L41.5898 35.6175L41.592 34.971L41.5887 34.9709L41.5865 35.6175ZM41.5196 34.9789L37.718 35.8388L37.8606 36.4694L41.6622 35.6096L41.5196 34.9789ZM37.718 35.8388L34.5926 36.5458L34.7353 37.1764L37.8606 36.4694L37.718 35.8388ZM34.9716 36.7618L34.2934 34.6613L33.6781 34.86L34.3563 36.9604L34.9716 36.7618ZM33.6627 34.7731L34.4676 55.602L35.1137 55.5771L34.3088 34.7482L33.6627 34.7731ZM34.6857 55.2838C27.7409 57.6673 22.1608 57.4439 18.3249 56.6319C16.4057 56.2257 14.9211 55.6717 13.919 55.2211C13.418 54.9958 13.0378 54.7964 12.7843 54.6543C12.6576 54.5833 12.5626 54.5266 12.5001 54.4882C12.4688 54.4691 12.4457 54.4544 12.4307 54.4449C12.4233 54.4401 12.4179 54.4366 12.4145 54.4344C12.4128 54.4333 12.4117 54.4326 12.4111 54.4321C12.4107 54.4319 12.4106 54.4318 12.4105 54.4318C12.4105 54.4317 12.4105 54.4318 12.4105 54.4318C12.4106 54.4318 12.4107 54.4319 12.2315 54.701C12.0522 54.97 12.0524 54.9701 12.0526 54.9703C12.0527 54.9703 12.053 54.9705 12.0532 54.9707C12.0537 54.971 12.0543 54.9714 12.055 54.9718C12.0565 54.9728 12.0584 54.9741 12.0609 54.9757C12.0659 54.979 12.073 54.9836 12.0821 54.9894C12.1004 55.0011 12.127 55.0179 12.1618 55.0393C12.2313 55.082 12.3337 55.143 12.4682 55.2183C12.7371 55.369 13.1343 55.5771 13.6538 55.8108C14.6928 56.278 16.2214 56.8476 18.191 57.2645C22.1326 58.0988 27.8321 58.3196 34.8956 55.8953L34.6857 55.2838ZM12.5543 54.7173L13.5841 34.3764L12.9383 34.3437L11.9086 54.6846L12.5543 54.7173ZM12.9939 34.1782L11.4147 36.5005L11.9494 36.8641L13.5285 34.5418L12.9939 34.1782ZM11.8105 36.3856L9.49918 35.3852L9.24236 35.9786L11.5537 36.979L11.8105 36.3856ZM9.49949 35.3853L5.30299 33.5638L5.04555 34.1569L9.24205 35.9784L9.49949 35.3853ZM5.17427 33.8604C5.44975 34.0295 5.44976 34.0295 5.44979 34.0295C5.44981 34.0295 5.44985 34.0294 5.4499 34.0293C5.45 34.0292 5.45015 34.0289 5.45035 34.0286C5.45076 34.0279 5.45138 34.0269 5.4522 34.0256C5.45384 34.0229 5.45631 34.0189 5.45957 34.0136C5.46609 34.003 5.4758 33.9872 5.48853 33.9665C5.514 33.9252 5.55153 33.8644 5.59973 33.7864C5.69615 33.6305 5.83524 33.4061 6.00583 33.1327C6.34705 32.5856 6.81408 31.8423 7.31755 31.0569C8.33135 29.4753 9.47267 27.755 10.04 27.098L9.55057 26.6754C8.94615 27.3754 7.77697 29.142 6.77321 30.708C6.26789 31.4963 5.79937 32.242 5.45723 32.7905C5.28614 33.0648 5.1466 33.2898 5.04981 33.4464C5.00141 33.5246 4.96369 33.5858 4.93805 33.6274C4.92524 33.6482 4.91544 33.6641 4.90884 33.6748C4.90553 33.6802 4.90303 33.6843 4.90135 33.687C4.90051 33.6884 4.89987 33.6894 4.89944 33.6901C4.89923 33.6905 4.89907 33.6907 4.89896 33.6909C4.8989 33.691 4.89886 33.6911 4.89883 33.6911C4.8988 33.6912 4.89879 33.6912 5.17427 33.8604ZM10.04 27.0979C10.1282 26.9958 10.3262 26.8586 10.6568 26.6989C10.9772 26.5441 11.3878 26.3841 11.8649 26.2226C12.8182 25.8998 14.0102 25.5798 15.2191 25.2891L15.0679 24.6604C13.8517 24.9529 12.6379 25.2782 11.6575 25.6102C11.1676 25.776 10.7294 25.9458 10.3756 26.1167C10.032 26.2826 9.73056 26.4669 9.55053 26.6755L10.04 27.0979ZM15.4425 24.8518C15.1654 24.1783 15.0544 23.4452 15.4353 22.8756L14.8978 22.5162C14.3297 23.3658 14.5461 24.3725 14.8445 25.0978L15.4425 24.8518ZM15.4352 22.8757C15.6771 22.5142 16.0863 22.1808 16.6514 21.8858C17.2142 21.5919 17.9129 21.346 18.7088 21.1498C20.3006 20.7574 22.2466 20.5726 24.1911 20.5838C26.1353 20.5951 28.0613 20.8023 29.6123 21.1851C30.388 21.3765 31.0609 21.6097 31.5925 21.8789C32.1285 22.1504 32.4942 22.4452 32.6897 22.7456L33.2316 22.3929C32.948 21.9571 32.4688 21.598 31.8846 21.3021C31.2958 21.0039 30.5729 20.7562 29.7672 20.5573C28.1555 20.1596 26.1768 19.9487 24.1948 19.9372C22.213 19.9258 20.2112 20.1135 18.5541 20.522C17.7255 20.7263 16.9744 20.9878 16.3522 21.3126C15.7323 21.6362 15.2214 22.0326 14.8978 22.5162L15.4352 22.8757ZM32.6895 22.7453C33.1276 23.4203 32.9453 24.3051 32.5526 25.1279L33.1361 25.4064C33.5462 24.5471 33.8673 23.3722 33.2318 22.3933L32.6895 22.7453Z" fill="black" mask="url(#path-8-outside-2_911_46222)"/>
<path d="M21.2677 25.4234C21.7133 26.1936 22.5359 26.9585 24.0243 27.0739L24.0074 27.0907L24.3977 27.092C26.1266 27.0979 27.0465 26.2773 27.5251 25.4469C27.7619 25.036 27.8892 24.6263 27.9574 24.3204C27.9916 24.167 28.0112 24.0388 28.0222 23.9483C28.0278 23.903 28.0312 23.867 28.0332 23.842C28.0343 23.8294 28.0349 23.8196 28.0354 23.8127L28.0359 23.8046L28.036 23.8022L28.036 23.8014L28.036 23.8012C28.036 23.801 28.036 23.8009 27.8746 23.7934L28.036 23.8009L28.037 23.7806L28.0329 23.7607L27.6958 22.1304L27.6958 22.1302L27.3587 20.4902L27.3323 20.3615L27.201 20.3611L21.6987 20.3422L21.5709 20.3418L21.541 20.466L21.1343 22.1521L21.1343 22.1521L20.7539 23.7285L20.7484 23.7512L20.7496 23.7746L20.9111 23.7664C20.7496 23.7746 20.7496 23.7747 20.7497 23.7748L20.7497 23.7751L20.7497 23.7759L20.7498 23.7782L20.7504 23.7864C20.7508 23.7933 20.7516 23.8031 20.7526 23.8156C20.7548 23.8407 20.7584 23.8767 20.7641 23.922C20.7756 24.0126 20.7957 24.1409 20.8306 24.2944C20.9001 24.6008 21.0292 25.0112 21.2677 25.4234Z" fill="white" stroke="black" stroke-width="0.323285"/>
<path d="M21.1309 22.1523L21.1069 22.2517L21.1864 22.316C21.3197 22.4237 21.4566 22.5416 21.5971 22.6627C21.8773 22.9042 22.1723 23.1585 22.4835 23.3697C22.961 23.6939 23.5054 23.9403 24.1722 23.9426C24.8347 23.9449 25.4947 23.6998 26.0866 23.3749C26.68 23.0492 27.2176 22.6361 27.6373 22.2874L27.7118 22.2255L27.6923 22.1306L27.3552 20.4903L27.3288 20.3617L27.1975 20.3612L21.6952 20.3424L21.5674 20.342L21.5375 20.4662L21.1309 22.1523Z" fill="#D9DCED" stroke="black" stroke-width="0.323285"/>
<path d="M29.8614 8.08654L29.8614 8.0863L29.8614 8.08627L29.8574 7.68661L29.5827 7.97649L29.5826 7.9765L29.5826 7.97658L29.5824 7.97674L29.5818 7.97735L29.5771 7.98216C29.5725 7.98673 29.5651 7.99398 29.5549 8.00364C29.5344 8.02296 29.5026 8.05195 29.4589 8.08854C29.3716 8.16171 29.237 8.26525 29.0521 8.38265C28.6825 8.61735 28.111 8.90781 27.3117 9.12152C25.7148 9.54852 23.1968 9.67228 19.5479 8.41423L19.3107 8.33247L19.3342 8.58222C19.4634 9.95299 19.1231 10.8493 18.7613 11.3995C18.5796 11.6759 18.3908 11.8676 18.249 11.9893C18.1961 12.0347 18.1497 12.0703 18.1128 12.0969C18.0819 12.0713 18.0444 12.0415 18.0017 12.0099C17.8772 11.9179 17.7009 11.8048 17.506 11.7362C17.3123 11.6681 17.0784 11.6365 16.8587 11.7419C16.6364 11.8486 16.4695 12.0755 16.3682 12.4343C16.2158 12.9715 16.3565 13.5747 16.6504 14.0015C16.9096 14.3779 17.3181 14.6517 17.7794 14.5749C17.7888 14.6239 17.8004 14.6825 17.8144 14.7498C17.8601 14.9705 17.9313 15.2851 18.033 15.6625C18.2363 16.4166 18.5625 17.4242 19.0541 18.434C20.0325 20.4437 21.6958 22.5179 24.3969 22.5272C27.0986 22.5364 28.7389 20.4882 29.6941 18.4993C30.174 17.5002 30.4883 16.5023 30.6827 15.7552C30.78 15.3813 30.8474 15.0695 30.8906 14.8507C30.9077 14.7638 30.9211 14.6916 30.9309 14.636C31.5086 14.5835 31.9307 14.165 32.1582 13.6783C32.4016 13.1576 32.4474 12.5088 32.1983 12.0416L32.1981 12.0412C32.0709 11.8044 31.9008 11.6669 31.7072 11.6118C31.5191 11.5582 31.3313 11.5888 31.1755 11.6423C31.0188 11.6961 30.8811 11.7774 30.7845 11.8432C30.7784 11.8474 30.7723 11.8515 30.7665 11.8556C30.3489 11.2133 30.1206 10.3205 29.9981 9.55171C29.933 9.1428 29.8988 8.7755 29.8809 8.51049C29.8719 8.37807 29.867 8.27141 29.8644 8.19814C29.8631 8.16151 29.8623 8.13323 29.8619 8.11427L29.8615 8.09294L29.8614 8.08774L29.8614 8.08654ZM30.7959 14.6415L30.7964 14.4803L30.7955 14.6415L30.7959 14.6415Z" fill="white" stroke="black" stroke-width="0.323285"/>
<path d="M24.8892 15.4569L24.6072 11.7586L24.6072 11.758L24.6072 11.758C24.5985 11.6305 24.6909 11.5184 24.8214 11.5095C24.9488 11.5009 25.0609 11.593 25.0699 11.7235L25.0699 11.7232L24.8892 15.4569ZM24.8892 15.4569L24.2181 15.4546C24.089 15.4542 23.9862 15.5562 23.9858 15.6853C23.9854 15.8144 24.0874 15.9172 24.2165 15.9176L25.3124 15.9213L25.3157 15.9214L25.3913 15.9216L25.3856 15.8462L25.0699 11.7238L24.8892 15.4569Z" fill="#423C86" stroke="#423C86" stroke-width="0.139711"/>
<path d="M26.912 13.623C26.9117 13.708 26.9806 13.7639 27.0453 13.7946C27.1148 13.8276 27.2063 13.8459 27.3044 13.8462C27.4025 13.8466 27.4941 13.8289 27.5638 13.7964C27.6288 13.7661 27.698 13.7106 27.6983 13.6257L27.7006 12.9599C27.7009 12.8749 27.632 12.819 27.5673 12.7883C27.4978 12.7553 27.4063 12.737 27.3082 12.7367C27.2101 12.7363 27.1185 12.754 27.0488 12.7865C26.9838 12.8168 26.9146 12.8723 26.9143 12.9572L26.912 13.623Z" fill="#423C86" stroke="#423C86" stroke-width="0.139711"/>
<path d="M21.7398 13.6054C21.7395 13.6904 21.8084 13.7463 21.8731 13.777C21.9426 13.81 22.034 13.8283 22.1322 13.8287C22.2303 13.829 22.3219 13.8113 22.3916 13.7788C22.4565 13.7485 22.5258 13.6931 22.5261 13.6081L22.5283 12.9423C22.5286 12.8574 22.4598 12.8014 22.395 12.7707C22.3255 12.7377 22.2341 12.7194 22.136 12.7191C22.0378 12.7188 21.9463 12.7364 21.8765 12.7689C21.8116 12.7992 21.7424 12.8547 21.7421 12.9396L21.7398 13.6054Z" fill="#423C86" stroke="#423C86" stroke-width="0.139711"/>
<path d="M26.4529 12.2108L26.4694 12.2108L26.4774 12.2068C26.5291 12.2026 26.5774 12.1796 26.6162 12.1449L26.6163 12.1449L26.6174 12.1438C27.0724 11.7181 27.5448 11.7126 27.9128 11.8175C28.2846 11.9235 28.548 12.1426 28.5672 12.1591C28.6653 12.2438 28.8095 12.229 28.8921 12.1333C28.9767 12.0352 28.9619 11.891 28.8662 11.8084L28.8663 11.8083L28.8627 11.8055C28.8656 11.8078 28.8377 11.7851 28.7995 11.7572C28.7592 11.7278 28.7013 11.6877 28.6286 11.6436C28.4835 11.5554 28.278 11.4501 28.0347 11.38C27.5457 11.2392 26.9024 11.2415 26.2965 11.8083L26.2965 11.8083L26.2963 11.8085C26.2043 11.8953 26.1982 12.0415 26.2844 12.1349C26.3293 12.1887 26.3955 12.2106 26.4529 12.2108ZM28.6128 12.1063C28.5677 12.0673 27.5232 11.2006 26.5697 12.0928L26.3369 12.0888C26.2757 12.0239 26.2793 11.9205 26.3442 11.8593C27.4908 10.7869 28.7612 11.8134 28.8186 11.8597C28.8197 11.8606 28.8203 11.8611 28.8206 11.8613C28.8883 11.9197 28.8976 12.02 28.8392 12.0876C28.7808 12.1553 28.6805 12.1647 28.6128 12.1063Z" fill="#423C86" stroke="#423C86" stroke-width="0.139711"/>
<path d="M20.6315 12.1353L20.6315 12.1354L20.6334 12.1336C20.6334 12.1337 20.6335 12.1336 20.6337 12.1334L20.6347 12.1325L20.638 12.1297L20.6493 12.1205C20.6588 12.1129 20.672 12.1027 20.6886 12.0905C20.7218 12.0662 20.7683 12.0342 20.8261 11.9994C20.9418 11.9297 21.1012 11.8497 21.287 11.7982C21.656 11.6959 22.1288 11.7045 22.5807 12.1327C22.6187 12.1706 22.6703 12.1929 22.7209 12.1973L22.7289 12.2014L22.7454 12.2014C22.8088 12.2016 22.868 12.1729 22.9114 12.1298L22.9114 12.1298L22.9127 12.1285C23.0013 12.0359 22.9968 11.8882 22.9048 11.8002L22.9046 11.8C22.3025 11.2291 21.6593 11.2224 21.1693 11.3599C20.9255 11.4283 20.7193 11.5322 20.5736 11.6194C20.5006 11.663 20.4424 11.7026 20.4019 11.7318C20.3672 11.7568 20.3409 11.7776 20.3384 11.7797L20.3384 11.7797L20.3364 11.7813C20.2376 11.8607 20.2237 12.0087 20.3062 12.1065C20.3859 12.2049 20.534 12.2183 20.6315 12.1353Z" fill="#423C86" stroke="#423C86" stroke-width="0.139711"/>
<path d="M23.6721 17.0997L23.6721 17.0997L23.6715 17.1008C23.6124 17.2136 23.6515 17.3522 23.7623 17.4138C23.8088 17.4415 24.2064 17.6476 24.7112 17.6493L24.7144 17.6493C24.9837 17.6502 25.2844 17.5906 25.5787 17.4161L25.5787 17.4161L25.5798 17.4154C25.6901 17.3469 25.7228 17.2081 25.6592 17.0981L25.6592 17.0981L25.6581 17.0963C25.5897 16.986 25.4508 16.9533 25.3409 17.0169L25.3409 17.0169L25.3401 17.0174C25.0279 17.2033 24.693 17.2034 24.4309 17.1542C24.1826 17.1076 24.0057 17.0177 23.9866 17.0078C23.8758 16.9475 23.7331 16.9881 23.6721 17.0997Z" fill="#423C86" stroke="#423C86" stroke-width="0.139711"/>
<path d="M16.9321 6.47629L16.9891 6.62756C17.3958 6.47435 17.725 6.47856 17.9824 6.60567C18.1889 6.70776 18.3347 6.88058 18.4306 7.03683C18.478 7.11409 18.5116 7.18471 18.5332 7.2358C18.5434 7.26003 18.5507 7.27954 18.5555 7.29286L18.5555 7.29367L18.5637 7.31858C18.6079 7.45265 18.734 7.54284 18.8714 7.54331L18.8747 7.54332C18.9046 7.54342 18.9357 7.53718 18.9488 7.53456C18.9499 7.53434 18.9508 7.53414 18.9517 7.53398L18.9597 7.5324L18.9675 7.53002C19.1362 7.47876 19.2343 7.29874 19.1825 7.12829L19.1826 7.12828L19.1814 7.12476C19.1814 7.12476 19.1813 7.12455 19.1811 7.12393L19.1802 7.1211L19.1772 7.11184C19.1747 7.10428 19.1713 7.0943 19.167 7.08218C19.1584 7.05796 19.1462 7.02535 19.1298 6.9864C19.0971 6.90864 19.0478 6.80493 18.9781 6.69182C18.8394 6.46674 18.615 6.1965 18.2726 6.02564L18.2726 6.02564L18.2723 6.02547C17.8285 5.80532 17.3145 5.81061 16.7595 6.02085L16.7595 6.02085L16.7593 6.02094C16.5922 6.08453 16.5072 6.27118 16.5712 6.43933C16.6348 6.60637 16.8215 6.69138 16.9896 6.62736L16.9321 6.47629ZM16.9321 6.47629C16.848 6.50834 16.7544 6.46599 16.7223 6.38182C16.6903 6.29766 16.7326 6.20405 16.8168 6.17201C17.3412 5.97337 17.8067 5.97496 18.2005 6.17028L18.7172 7.26799C18.7172 7.26152 18.5413 6.70163 18.054 6.46073C17.7442 6.30773 17.3659 6.3129 16.9321 6.47629Z" fill="#393761" stroke="#393761" stroke-width="0.323285"/>
<path d="M18.4235 4.52476L18.4235 4.52475L18.4229 4.52565C18.3953 4.56834 18.2065 4.88908 18.1865 5.45573C18.1664 6.024 18.3166 6.82744 18.9501 7.83266C18.9788 7.88008 19.0175 7.91632 19.0613 7.94148L19.0611 7.98712L19.2227 7.98767C19.2843 7.98788 19.3461 7.96871 19.3959 7.93783L19.3959 7.93786L19.3985 7.93616C19.5453 7.84112 19.5937 7.64234 19.4962 7.49069C18.9519 6.62674 18.8292 5.9627 18.8359 5.52322C18.8393 5.30258 18.8754 5.13573 18.9095 5.02563C18.9367 4.9379 18.9625 4.88596 18.9727 4.86679C19.0605 4.7163 19.0175 4.52399 18.8706 4.42747L18.8706 4.42744L18.868 4.42578C18.7108 4.3268 18.5172 4.38225 18.4235 4.52476Z" fill="#393761" stroke="#393761" stroke-width="0.323285"/>
<path d="M3.35932 46.5932L3.35907 46.5931L3.35504 46.6018L3.50153 46.6701C3.35504 46.6018 3.35502 46.6018 3.35499 46.6019L3.35491 46.602L3.35461 46.6027L3.35353 46.605L3.34945 46.6139L3.33398 46.6478C3.32056 46.6774 3.30113 46.7208 3.27682 46.7763C3.22821 46.8874 3.16009 47.0471 3.08164 47.2426C2.92488 47.6331 2.72625 48.168 2.55989 48.7432C2.3939 49.3172 2.258 49.9381 2.23041 50.499C2.20314 51.0534 2.2798 51.5839 2.57697 51.943L2.57718 51.9432C2.98228 52.4307 3.51304 52.7026 3.95722 52.8205C4.17895 52.8794 4.38581 52.9017 4.5508 52.8899C4.6328 52.884 4.71154 52.8692 4.77857 52.8413C4.843 52.8145 4.91799 52.7663 4.95503 52.6807L4.95503 52.6807L4.95561 52.6794C5.03686 52.4867 4.97857 52.2596 4.89585 52.0669C4.80907 51.8647 4.67444 51.6529 4.53799 51.4642C4.53709 51.4629 4.53618 51.4616 4.53527 51.4604C4.62504 51.5067 4.71883 51.5533 4.81443 51.5984C5.09163 51.7291 5.39149 51.8508 5.65583 51.9121C5.78786 51.9428 5.91867 51.9603 6.03737 51.9528C6.1556 51.9454 6.27713 51.912 6.37093 51.8255C6.47704 51.7276 6.50164 51.5959 6.48824 51.4739C6.47528 51.3559 6.42615 51.231 6.36287 51.1102C6.23544 50.8669 6.02485 50.5929 5.80785 50.3408C5.64979 50.1572 5.48459 49.981 5.33828 49.831C5.52798 49.8803 5.74614 49.9324 5.96947 49.9763C6.29075 50.0396 6.63105 50.0877 6.91514 50.0835C7.05687 50.0814 7.19336 50.0663 7.30966 50.0285C7.4254 49.9909 7.53864 49.9249 7.6047 49.809C7.67676 49.6826 7.65975 49.5488 7.60888 49.436C7.55972 49.327 7.47346 49.2227 7.37484 49.1267C7.17621 48.9334 6.88767 48.7365 6.59967 48.5626C6.42904 48.4595 6.25535 48.3626 6.09531 48.2772C6.229 48.2795 6.37156 48.2796 6.51557 48.2761C6.81829 48.2688 7.13533 48.2452 7.3914 48.1882C7.51904 48.1598 7.63989 48.1213 7.73836 48.0673C7.83523 48.0141 7.93007 47.9349 7.97008 47.8163C8.01516 47.6825 7.96591 47.5599 7.89849 47.4689C7.83181 47.3788 7.73248 47.2971 7.62341 47.2241C7.40342 47.0767 7.10029 46.9361 6.80164 46.8154C6.50083 46.6938 6.19551 46.5889 5.96606 46.5146C5.93576 46.5048 5.90675 46.4955 5.87923 46.4868C6.00428 46.3835 6.16248 46.2452 6.31638 46.0893C6.48141 45.9221 6.64733 45.7288 6.76076 45.532C6.87123 45.3404 6.95039 45.1134 6.88553 44.8957L6.88531 44.8949C6.84412 44.7591 6.74222 44.6746 6.62182 44.6326C6.50739 44.5926 6.37179 44.5882 6.23267 44.6035C5.95262 44.6343 5.60424 44.7512 5.24865 44.9256C4.53951 45.2735 3.74581 45.8779 3.35932 46.5932Z" fill="white" stroke="black" stroke-width="0.323285"/>
<path d="M22.9859 25.9526L24.4563 28.9448L25.7823 25.9622" fill="white"/>
<path d="M21.8876 28.48C22.2194 28.4811 22.4899 28.2125 22.491 27.8807C22.4921 27.549 22.2235 27.2785 21.8918 27.2774C21.56 27.2762 21.2895 27.5449 21.2884 27.8766C21.2873 28.2083 21.5559 28.4788 21.8876 28.48Z" fill="white" stroke="black" stroke-width="0.323285"/>
<path d="M27.1768 28.498C27.5089 28.4992 27.779 28.2309 27.7801 27.8988C27.7813 27.5667 27.513 27.2966 27.1809 27.2954C26.8488 27.2943 26.5787 27.5626 26.5775 27.8947C26.5764 28.2268 26.8447 28.4969 27.1768 28.498Z" fill="white" stroke="black" stroke-width="0.323285"/>
<path d="M21.8418 27.8107C21.9291 27.8078 22.0065 27.8727 22.0126 27.9632C22.0983 29.3827 22.446 30.7547 23.0429 32.0434L21.8418 27.8107ZM21.8418 27.8107C21.7513 27.8169 21.6831 27.891 21.6893 27.9815L21.5279 27.9913C21.6179 29.4693 21.9799 30.9025 22.6009 32.2447L21.8418 27.8107Z" fill="white" stroke="black" stroke-width="0.323285"/>
<path d="M26.2483 30.9041L26.2482 30.9043L26.2412 30.9196C26.0585 31.3166 25.8655 31.736 25.7234 32.1732C25.6657 32.3419 25.7596 32.5259 25.926 32.5811C25.9353 32.5845 25.9444 32.5871 25.9532 32.5892L25.9637 32.5998L26.0306 32.6C26.1731 32.6005 26.2954 32.5094 26.3399 32.3774L26.3399 32.3774L26.3405 32.3756C26.471 31.973 26.6556 31.5718 26.8387 31.1766L26.8387 31.1766L26.839 31.1758L26.8502 31.1513C26.9866 30.8528 27.1308 30.5372 27.2535 30.2175L27.2537 30.2169C27.6136 29.2673 27.6912 28.4167 27.4526 27.6936C27.3992 27.5178 27.2124 27.4291 27.0462 27.4838C26.8698 27.5375 26.7812 27.7258 26.8376 27.8924C27.02 28.4498 26.9665 29.1492 26.6482 29.9843C26.5296 30.2919 26.3885 30.6004 26.2483 30.9041Z" fill="white" stroke="black" stroke-width="0.323285"/>
</g>
<defs>
<clipPath id="clip0_911_46222">
<rect x="0.716309" y="0.316895" width="45.7959" height="44" rx="22" transform="rotate(0.195967 0.716309 0.316895)" fill="white"/>
</clipPath>
</defs>
</svg>
